<?xml version="1.0" standalone="no"?>
<!DOCTYPE svg PUBLIC "-//W3C//DTD SVG 1.1//EN" "http://www.w3.org/Graphics/SVG/1.1/DTD/svg11.dtd" >
<svg xmlns="http://www.w3.org/2000/svg" xmlns:xlink="http://www.w3.org/1999/xlink" version="1.1">
<metadata></metadata>
<defs>
<font id="comfortaalight" horiz-adv-x="1280" >
<font-face units-per-em="2048" ascent="1638" descent="-410" />
<missing-glyph horiz-adv-x="560" />
<glyph horiz-adv-x="0" />
<glyph unicode="&#xd;" horiz-adv-x="560" />
<glyph unicode=" "  horiz-adv-x="560" />
<glyph unicode="&#x09;" horiz-adv-x="560" />
<glyph unicode="&#xa0;" horiz-adv-x="560" />
<glyph unicode="!" horiz-adv-x="400" d="M100 104q0 44 30 73q30 30 74 30t73 -30q30 -29 30 -73t-30 -74q-29 -30 -73 -30t-74 30t-30 74zM141 393v1146q0 26 18.5 44t44.5 18t44 -18t18 -44v-1146q0 -26 -18 -42q-18 -19 -44 -19t-44 19q-19 17 -19 42z" />
<glyph unicode="&#x22;" horiz-adv-x="560" d="M99 1539q0 26 18 44t44 18t44 -18t18 -44l-21 -312q0 -17 -12 -29t-29 -12t-29.5 12t-12.5 29zM347 1539q0 26 18.5 44t44.5 18t44 -18t18 -44l-21 -312q0 -17 -12 -29t-29 -12t-29.5 12t-12.5 29z" />
<glyph unicode="#" d="M85 544q1 39 25.5 58.5t51.5 19.5h184l65 374h-190q-25 0 -38.5 17.5t-9.5 41.5v-1q5 27 27.5 46.5t50.5 19.5h183l76 432q5 27 27 46.5t50 19.5q23 0 37 -17.5t10 -41.5l-76 -439h291l76 432q5 27 27 46.5t49 19.5q24 0 38 -17.5t10 -41.5l-77 -439h191q24 0 36 -15 t12 -32q-2 -38 -26.5 -57.5t-51.5 -19.5h-183l-66 -374h191q23 0 37.5 -17t10.5 -41q-6 -27 -28 -46.5t-49 -19.5h-184l-76 -433q-6 -26 -28 -45.5t-49 -19.5q-23 0 -37.5 17t-10.5 41l78 440h-291l-77 -433q-5 -26 -27.5 -45.5t-49.5 -19.5q-23 0 -37.5 17t-10.5 41l78 440 h-191q-24 0 -36 14t-12 32zM469 622h292l65 374h-291z" />
<glyph unicode="$" horiz-adv-x="1060" d="M94 256q0 26 18 44t44 18q34 0 53 -28q13 -20 31 -40q46 -54 114 -87t155 -40v709q-149 29 -240 135q-45 54 -69 118t-23 169q7 80 42.5 148t95.5 120q18 14 40.5 27.5t48 25.5t52.5 21.5t53 15.5v109q0 26 18 44.5t44 18.5t44 -18.5t18 -44.5v-110q75 -14 133.5 -48 t104.5 -86q23 -24 38 -53q9 -17 9 -34q0 -26 -18 -44.5t-44 -18.5q-25 0 -39 16q-10 11 -21 26.5t-21 26.5q-48 57 -142 89v-546q72 -20 133 -59.5t108 -93.5q53 -66 82.5 -143t29.5 -159q-7 -144 -50 -225.5t-118 -144.5q-79 -65 -185 -98v-120q0 -26 -18 -44t-44 -18 t-44 18t-18 44v105q-211 -1 -364 168q-20 22 -37 47q-14 18 -14 40zM301 1244q-4 -54 13 -104t52 -93q23 -28 59 -50.5t84 -38.5v528q-35 -11 -64 -26.5t-49 -32.5q-40 -36 -65.5 -83.5t-29.5 -99.5zM633 145q57 22 104 64q51 46 85.5 108.5t38.5 163.5q0 129 -83 225 q-26 30 -62.5 55.5t-82.5 48.5v-665z" />
<glyph unicode="%" horiz-adv-x="1760" d="M87 1208q0 163 116 279q115 115 278 115q164 0 279 -115q116 -116 116 -279q0 -165 -116 -279q-114 -115 -279 -115q-164 0 -278 115q-116 114 -116 279zM212 1208q0 -112 79 -191t190 -79t190 79q80 80 80 191t-80 189q-80 80 -190 80t-190 -80q-79 -78 -79 -189z M253 62q0 24 16 43l1156 1469q12 13 24.5 20t27.5 7q26 0 44 -18t18 -44q0 -22 -12 -38l-1163 -1478q-22 -23 -48 -23t-44.5 18t-18.5 44zM917 394q0 164 115 279t279 115t279 -115t115 -279t-115 -279t-279 -115t-279 115t-115 279zM1041 394q0 -112 79 -191t191 -79 q111 0 190 79q80 80 80 191q0 110 -80 190t-190 80q-111 0 -191 -80q-79 -79 -79 -190z" />
<glyph unicode="&#x26;" horiz-adv-x="1440" d="M90 452q0 88 49 170.5t139 154.5l129 100l-131 130q-103 105 -103 248q0 145 103 247q103 103 250 103q146 0 249 -103q104 -101 104 -247q0 -154 -145 -278l1 1l-144 -109l400 -397l198 210q16 17 42 17t44 -17.5t18 -43.5q0 -23 -14 -42l-201 -210l282 -283 q16 -17 16 -41q0 -26 -18 -44t-44 -18q-25 0 -43 17l-279 278l-159 -168h1q-128 -127 -308 -127t-308 127t-128 325zM215 452q0 -147 91 -238q92 -91 220 -91t220 91l158 168l-412 411l-132 -100q-145 -112 -145 -241zM298 1255q0 -93 66 -160l142 -142l137 108q57 45 84 93 t27 101q0 91 -67 160q-67 66 -161 66q-95 0 -162 -66q-66 -68 -66 -160z" />
<glyph unicode="'" horiz-adv-x="320" d="M101 1540q0 26 18 44t44 18t44 -18t18 -44l-21 -312q0 -17 -12 -29t-29 -12t-29.5 12t-12.5 29z" />
<glyph unicode="(" horiz-adv-x="560" d="M99 565q0 251 60.5 499t185.5 501q6 14 15 23q18 18 45 18q25 0 42 -16.5t18 -40.5q-1 -19 -11 -40q-235 -474 -235 -945q0 -240 59.5 -476t177.5 -474q10 -19 10 -36q0 -24 -18 -41t-43 -17q-26 0 -44 18q-9 11 -17 25q-124 253 -184.5 502t-60.5 500z" />
<glyph unicode=")" horiz-adv-x="560" d="M99 -422q0 17 10 36q118 238 177 474t59 476q0 471 -234 945q-10 21 -11 40q1 24 17.5 40.5t42.5 16.5q27 0 44 -18q9 -9 15 -23q125 -253 186 -501t61 -499t-61 -500t-185 -502q-8 -14 -17 -25q-17 -18 -43 -18t-43.5 17t-17.5 41z" />
<glyph unicode="*" horiz-adv-x="780" d="M102 1374q1 11 4 20q8 25 31 35.5t46 2.5q13 -5 21 -11l177 -103l-42 200q-3 10 -3 22q0 26 18 44t44 18t44 -18t18 -44q0 -12 -3 -22l-44 -201l180 105q10 6 19 10q25 8 48 -2.5t32 -35.5q4 -11 4 -21q0 -15 -6 -27q-11 -24 -35 -31q-10 -4 -23 -5l-208 -21l162 -140 q9 -7 15 -16q6 -8 10 -19t4 -19q0 -14 -6.5 -27t-17.5 -22q-20 -14 -48 -13q-25 3 -40 23q-6 8 -11 18l-93 195l-95 -194q-5 -12 -12 -21q-16 -22 -48 -22q-22 1 -38 14q-23 18 -23 49q0 22 13 38l16 16l162 139l-208 22q-14 1 -23 5q-25 11 -35 31q-6 14 -6 28z" />
<glyph unicode="+" horiz-adv-x="1120" d="M79 809q0 26 18.5 44t44.5 18h352v353q0 26 18 44t44 18t44.5 -18t18.5 -44v-353h352q26 0 44 -18t18 -44t-18 -44t-44 -18h-352v-353q0 -26 -18.5 -44t-44.5 -18t-44 18t-18 44v353h-352q-26 0 -44.5 18t-18.5 44z" />
<glyph unicode="," horiz-adv-x="400" d="M100 104q0 44 30 73q30 30 74 30t73 -30q30 -29 30 -73q0 -198 -87 -330q-14 -23 -37 -23q-17 0 -29.5 12.5t-12.5 29.5q1 16 12 29q37 41 37 87q0 28 -14.5 58.5t-45.5 62.5q-30 30 -30 74z" />
<glyph unicode="-" horiz-adv-x="800" d="M79 560q0 26 18.5 44t44.5 18h497q26 0 44.5 -18t18.5 -44t-18.5 -44t-44.5 -18h-497q-26 0 -44.5 18t-18.5 44z" />
<glyph unicode="." horiz-adv-x="400" d="M100 104q0 44 30 73q30 30 74 30t73 -30q30 -29 30 -73t-30 -74q-29 -30 -73 -30t-74 30t-30 74z" />
<glyph unicode="/" horiz-adv-x="960" d="M82 -104q0 16 5 27l665 1661q4 10 11 17q19 17 45 17t44 -18t18 -44q0 -15 -6 -28l-664 -1660q-4 -10 -10 -16q-20 -18 -46 -18t-44 18t-18 44z" />
<glyph unicode="0" horiz-adv-x="1120" d="M80 803q0 238 52 412t146 276q57 53 128 83.5t151 30.5q81 0 151.5 -30.5t127.5 -83.5q95 -102 146.5 -276t51.5 -412q0 -239 -51.5 -413t-146.5 -276q-57 -53 -127.5 -83.5t-151.5 -30.5q-80 0 -151 30.5t-128 83.5q-94 102 -146 276t-52 413zM205 803q0 -420 161 -601 q78 -79 191 -79q111 0 191 79q162 182 162 601q0 417 -162 598q-81 80 -191 80q-112 0 -191 -80q-161 -180 -161 -598z" />
<glyph unicode="1" horiz-adv-x="560" d="M80 1457q0 26 18 44q8 8 20 14l249 83q14 4 24 4q26 0 44 -18t18 -44v-1478q0 -26 -18 -44t-44 -18t-44.5 18t-18.5 44v1390l-161 -52q-15 -6 -25 -6q-26 0 -44 18.5t-18 44.5z" />
<glyph unicode="2" horiz-adv-x="1120" d="M80 62q0 24 19 45l708 769q49 51 76 114.5t27 134.5q0 146 -104 249q-102 103 -249 103q-146 0 -250 -103q-102 -104 -102 -249q0 -26 -18 -44t-44 -18t-44.5 18t-18.5 44q0 196 139 337q142 140 338 140q199 0 337 -140q140 -139 140 -337q0 -199 -141 -339l-609 -662 h688q26 0 44 -18t18 -44t-18 -44t-44 -18h-829q-26 0 -44.5 18t-18.5 44z" />
<glyph unicode="3" horiz-adv-x="1120" d="M80 472q0 26 18.5 44t44.5 18t44 -18t18 -44q0 -142 102 -247q54 -51 115.5 -76.5t134.5 -25.5q146 0 249 102q104 103 104 247q0 145 -104 247q-102 103 -249 103q-26 0 -44 17.5t-18 43.5t18 44t44 18q111 0 190 78q80 79 80 189t-80 187q-80 79 -190 79 q-112 0 -190 -79q-79 -77 -79 -187q0 -26 -18 -44t-44 -18t-44.5 18t-18.5 44q0 82 29 150.5t86 125.5q58 57 127 85.5t152 28.5q164 0 279 -114t115 -276q0 -171 -165 -323q35 -21 62 -41.5t47 -40.5q139 -138 139 -335t-140 -334q-139 -138 -337 -138q-196 0 -338 138 q-139 139 -139 334z" />
<glyph unicode="4" d="M80 460q0 20 11 36l747 1080q17 25 51 25q26 0 44 -18t18 -44v-1017h187q26 0 44 -18t18 -44t-18 -44t-44 -18h-187v-336q0 -26 -18 -44t-44 -18t-44 18t-18 44v336h-685q-26 0 -44 18t-18 44zM262 522h565v816z" />
<glyph unicode="5" horiz-adv-x="1200" d="M80 519q0 26 18 44t44 18t44 -18t18 -44q0 -164 115 -279q119 -116 279 -116q162 0 278 116q116 115 116 279t-116 277q-116 117 -278 117h-373q-26 0 -44 18t-18 44v565q0 26 18 44t44 18h746q26 0 44.5 -18t18.5 -44t-18.5 -44.5t-44.5 -18.5h-684v-440h311 q216 0 366 -152q153 -152 153 -366q0 -215 -153 -368q-151 -151 -366 -151q-213 0 -367 151q-151 152 -151 368z" />
<glyph unicode="6" horiz-adv-x="1120" d="M80 477q0 145 77 260l509 829q6 10 12 17q18 18 45 18q26 0 44.5 -18t18.5 -44q0 -17 -9 -33l-353 -567q72 15 133 15q199 0 337 -140q140 -137 140 -337q0 -199 -140 -338q-139 -139 -337 -139q-196 0 -338 139q-139 141 -139 338zM205 477q0 -144 102 -250 q54 -51 115.5 -77t134.5 -26q146 0 249 103q104 104 104 250t-104 249q-102 104 -249 104q-144 0 -250 -104q-102 -104 -102 -249z" />
<glyph unicode="7" horiz-adv-x="1120" d="M80 62q0 18 15 42l772 1373h-724q-26 0 -44.5 18.5t-18.5 44.5t18.5 44t44.5 18h829q26 0 44 -18t18 -44q0 -19 -9 -35l-825 -1469q-6 -11 -12 -17q-19 -19 -45 -19t-44.5 18t-18.5 44z" />
<glyph unicode="8" horiz-adv-x="1120" d="M80 472q0 196 140 335q41 41 111 85q-31 23 -53 44q-115 114 -115 276q0 82 29 150.5t86 125.5q58 57 127 85.5t152 28.5q164 0 279 -114t115 -276q0 -163 -115 -276q-18 -17 -49 -44q34 -24 61 -44.5t47 -40.5q139 -138 139 -335t-140 -334q-139 -138 -337 -138 q-196 0 -338 138q-139 139 -139 334zM205 472q0 -142 102 -247q109 -102 250 -102q146 0 249 102q104 103 104 247q0 145 -104 247q-102 103 -249 103q-144 0 -250 -103q-102 -103 -102 -247zM288 1212q0 -111 79 -189q78 -78 190 -78q111 0 190 78q80 79 80 189t-80 187 q-80 79 -190 79q-112 0 -190 -79q-79 -77 -79 -187z" />
<glyph unicode="9" horiz-adv-x="1120" d="M80 1124q0 196 139 337q142 140 338 140q199 0 337 -140q140 -139 140 -337q0 -145 -76 -262l-510 -827q-5 -9 -12 -16q-18 -19 -45 -19q-26 0 -44 18t-18 44q0 16 9 32l353 568q-64 -15 -134 -15q-198 0 -338 139q-139 141 -139 338zM205 1124q0 -145 102 -250 q106 -103 250 -103q147 0 249 103q104 103 104 250q0 146 -104 249q-102 103 -249 103q-146 0 -250 -103q-102 -104 -102 -249z" />
<glyph unicode=":" horiz-adv-x="400" d="M100 104q0 44 30 73q30 30 74 30t73 -30q30 -29 30 -73t-30 -74q-29 -30 -73 -30t-74 30t-30 74zM100 1017q0 44 30 74t74 30t73 -30q30 -30 30 -74q0 -45 -30 -73q-29 -30 -73 -30t-74 30q-30 28 -30 73z" />
<glyph unicode=";" horiz-adv-x="400" d="M100 104q0 44 30 73q30 30 74 30t73 -30q30 -29 30 -73q0 -197 -87 -329q-15 -24 -37 -24q-17 0 -29.5 12.5t-12.5 29.5q0 16 12 29q37 41 37 87q0 28 -14.5 58.5t-45.5 62.5q-30 30 -30 74zM100 1017q0 44 30 74t74 30t73 -30q30 -30 30 -74q0 -45 -30 -73 q-29 -30 -73 -30t-74 30q-30 28 -30 73z" />
<glyph unicode="&#x3c;" horiz-adv-x="1120" d="M79 726q0 32 36 57l825 496q14 7 31 7q26 0 44 -18t18 -44q0 -34 -33 -55h1l-739 -443l739 -443q32 -21 32 -55q0 -26 -18 -44t-44 -18q-20 0 -31 7l-825 496q-36 23 -36 57z" />
<glyph unicode="=" horiz-adv-x="1040" d="M81 477q0 26 18 44t44 18h747q26 0 44 -18t18 -44t-18 -44t-44 -18l-747 -1q-26 1 -44 19t-18 44zM81 975q0 26 18 44t44 18h747q26 0 44 -18t18 -44t-18 -44t-44 -18h-747q-26 0 -44 18t-18 44z" />
<glyph unicode="&#x3e;" horiz-adv-x="1120" d="M80 228q0 34 32 55l739 443l-739 443h1q-33 21 -33 55q0 26 18 44t44 18q17 0 31 -7l825 -496q36 -25 36 -57q0 -34 -36 -57l-825 -496q-11 -7 -31 -7q-26 0 -44 18t-18 44z" />
<glyph unicode="?" horiz-adv-x="1120" d="M80 1127q0 195 139 336q142 139 338 139q199 0 337 -139q140 -139 140 -336q0 -198 -140 -336v1l-171 -159q-103 -103 -103 -249q0 -26 -18.5 -44t-44.5 -18t-44 18t-18 44q0 197 140 336v-1l171 158q104 103 104 250q0 146 -104 248q-102 103 -249 103q-146 0 -250 -103 q-102 -103 -102 -248q0 -26 -18 -43.5t-44 -17.5t-44.5 17.5t-18.5 43.5zM454 104q0 44 30 73q28 30 73 30q44 0 74 -30q30 -29 30 -73t-30 -74t-74 -30q-45 0 -73 30q-30 30 -30 74z" />
<glyph unicode="@" horiz-adv-x="2240" d="M83 562q0 430 304 735t736 305q430 0 734 -305q306 -305 306 -735q0 -632 -388 -632q-224 0 -224 224v65q-15 -23 -39 -46q-161 -161 -389 -161q-230 0 -389 161q-161 161 -161 389t161 389q159 161 389 161q228 0 389 -161t161 -389v-408q0 -102 102 -102q265 0 265 510 q0 382 -269 649q-266 268 -648 268q-380 0 -650 -268q-268 -271 -268 -649t268 -649q270 -268 650 -268q102 0 195.5 19.5t181.5 59.5q16 7 33 7q25 0 43 -17.5t18 -43.5q0 -27 -18 -43q-10 -10 -22 -16q-194 -89 -431 -89q-432 0 -736 305q-304 304 -304 735zM694 562 q0 -177 126 -303t303 -126t303 126q125 125 125 303t-125 303q-126 126 -303 126t-303 -126t-126 -303z" />
<glyph unicode="A" horiz-adv-x="1440" d="M80 62q0 13 6 27l571 1467q6 16 16 27q17 17 43 17t44 -18q10 -10 16 -26l570 -1467q6 -14 6 -27q0 -26 -18 -44t-43 -18q-26 0 -43 15q-9 9 -15 23l-208 536h-617l-209 -536q-6 -14 -14 -22q-17 -16 -43 -16t-44 18t-18 44zM456 697h521l-261 672z" />
<glyph unicode="B" horiz-adv-x="1120" d="M80 62v1476q0 26 18 44t44 18h328q162 0 276 -114t114 -276t-134 -296q100 -48 161 -108q137 -139 137 -334q0 -196 -138 -335q-139 -137 -334 -137h-410q-26 0 -44 18t-18 44zM203 123h349q145 0 246 102q103 102 103 247q0 144 -103 246q-100 103 -246 103h-349v-698z M203 944h267q111 0 188 78q79 79 79 188t-79 188t-188 79h-267v-533z" />
<glyph unicode="C" horiz-adv-x="1480" d="M80 800q0 331 234 565q235 235 566 235q285 0 507 -182q18 -18 18 -44q0 -25 -18 -43t-43 -18q-26 0 -51 24q-173 140 -413 140q-280 0 -479 -199q-198 -198 -198 -478q0 -281 198 -479t479 -198q242 0 424 149q13 9 33 9q26 0 44 -18t18 -44q0 -25 -15 -41 q-112 -87 -238 -132.5t-266 -45.5q-163 0 -306 61t-260 173q-112 117 -173 260t-61 306z" />
<glyph unicode="D" horiz-adv-x="1360" d="M80 62v1476q0 26 18 44t43 18h329q331 0 565 -235q235 -234 235 -565t-235 -566q-234 -234 -565 -234h-329q-25 0 -43 18t-18 44zM203 123h267q278 0 478 198q199 199 199 479q0 279 -199 478q-201 199 -478 199h-267v-1354z" />
<glyph unicode="E" d="M80 62v1476q0 26 18 44t44 18h985q25 0 43 -18t18 -44q0 -25 -18 -43t-43 -18h-924v-615h677q26 0 44 -18t18 -44t-18 -44t-44 -18h-677v-615h924q25 0 43 -18t18 -43q0 -26 -18 -44t-43 -18h-985q-26 0 -44 18t-18 44z" />
<glyph unicode="F" d="M80 62v1476q0 26 18 44t44 18h985q25 0 43 -18t18 -44q0 -25 -18 -43t-43 -18h-924v-615h677q26 0 44 -18t18 -44t-18 -44t-44 -18h-677v-676q0 -26 -17.5 -44t-43.5 -18t-44 18t-18 44z" />
<glyph unicode="G" horiz-adv-x="1500" d="M80 800q0 331 234 565q235 235 566 235q285 0 507 -182q18 -18 18 -44q0 -25 -18 -43t-43 -18q-26 0 -51 24q-173 140 -413 140q-280 0 -479 -199q-198 -198 -198 -478q0 -281 198 -479t479 -198q220 0 396 127v406h-345q-26 0 -43.5 18t-17.5 44t17.5 43.5t43.5 17.5 h407q24 0 44 -18q17 -19 17 -43v-499q0 -27 -15 -41q-112 -87 -238 -132.5t-266 -45.5q-163 0 -306 61t-260 173q-112 117 -173 260t-61 306z" />
<glyph unicode="H" d="M80 62v1476q0 26 18 44t44 18t43.5 -18t17.5 -44v-676h862v676q0 26 18 44t44 18q25 0 43 -18t18 -44v-1476q0 -26 -18 -44t-43 -18q-26 0 -44 18t-18 44v676h-862v-676q0 -26 -17.5 -44t-43.5 -18t-44 18t-18 44z" />
<glyph unicode="I" horiz-adv-x="480" d="M178 62v1476q0 26 17.5 44t43.5 18t44 -18t18 -44v-1476q0 -26 -18 -44t-44 -18t-43.5 18t-17.5 44z" />
<glyph unicode="J" horiz-adv-x="1120" d="M80 472q0 26 18 43.5t44 17.5t43.5 -17.5t17.5 -43.5q0 -144 102 -247q105 -102 247 -102q145 0 246 102q103 102 103 247v1066q0 26 18 44t43 18q26 0 44 -18t18 -44v-1066q0 -196 -138 -335q-139 -137 -334 -137t-334 137q-138 141 -138 335z" />
<glyph unicode="K" horiz-adv-x="1200" d="M80 62v1476q0 26 18 44t43 18q26 0 44 -18t18 -44v-752l795 795q19 19 46 19q26 0 44 -18t18 -44q0 -23 -18 -44l-589 -588l595 -808q11 -16 12 -33q0 -33 -25 -53q-17 -12 -35 -12q-34 0 -53 26l-583 790l-207 -207v-547q0 -26 -18 -44t-44 -18q-25 0 -43 18t-18 44z " />
<glyph unicode="L" horiz-adv-x="1200" d="M80 62v1476q0 26 18 44t43 18q26 0 44 -18t18 -44v-1415h841q26 0 44 -18t18 -43q0 -26 -18 -44t-44 -18h-903q-25 0 -43 18t-18 44z" />
<glyph unicode="M" horiz-adv-x="1760" d="M80 62v1476q0 26 18 44t44 18q37 0 54 -32l684 -1369l684 1369q18 32 55 32q26 0 43.5 -18t17.5 -44v-1476q0 -26 -17.5 -44t-43.5 -18t-44 18t-18 44v1216l-624 -1249q-18 -29 -53 -29q-40 0 -57 39l-620 1239v-1216q0 -26 -17.5 -44t-43.5 -18t-44 18t-18 44z" />
<glyph unicode="N" horiz-adv-x="1440" d="M80 62v1476q0 26 18 44t44 18q29 0 47 -22l1040 -1337v1297q0 26 18 44t44 18q25 0 43 -18t18 -44v-1476q0 -26 -18 -44t-43 -18q-30 0 -46 18l-1042 1340v-1296q0 -26 -17.5 -44t-43.5 -18t-44 18t-18 44z" />
<glyph unicode="O" horiz-adv-x="1760" d="M80 800q0 331 234 565q235 235 566 235q333 0 565 -235q235 -234 235 -565t-235 -566q-233 -234 -565 -234q-163 0 -306 61t-260 173q-112 117 -173 260t-61 306zM203 800q0 -281 198 -479q199 -198 479 -198t478 198q199 198 199 479q0 280 -199 478q-199 199 -478 199 q-278 0 -479 -199q-198 -198 -198 -478z" />
<glyph unicode="P" horiz-adv-x="1080" d="M80 62v1476q0 26 17.5 44t43.5 18h328q214 0 362 -151q151 -148 151 -362q0 -212 -151 -363q-150 -150 -362 -150h-266v-512q0 -26 -18 -44t-44 -18t-43.5 18t-17.5 44zM203 697h266q161 0 275 114q115 115 115 276t-115 275q-114 115 -275 115h-266v-780z" />
<glyph unicode="Q" horiz-adv-x="1760" d="M80 800q0 331 234 565q235 235 566 235q333 0 565 -235q235 -234 235 -565q0 -292 -192 -520l175 -175q17 -18 17 -43q0 -26 -17.5 -44t-43.5 -18t-45 19l-174 173q-230 -192 -520 -192q-163 0 -306 61t-260 173q-112 117 -173 260t-61 306zM203 800q0 -281 198 -479 q199 -198 479 -198q238 0 433 156l-190 190q-17 18 -17 44t18 43.5t43 17.5t45 -17l189 -190q156 195 156 433q0 280 -199 478q-199 199 -478 199q-278 0 -479 -199q-198 -198 -198 -478z" />
<glyph unicode="R" horiz-adv-x="1200" d="M80 62v1476q0 26 18 44t43 18h411q196 0 333 -138q138 -138 138 -334t-137 -333q-65 -65 -160 -108l369 -592q11 -16 11 -33q0 -26 -18 -44t-44 -18q-32 0 -54 33l-391 625q-21 -2 -47 -2h-349v-594q0 -26 -18 -44t-44 -18q-25 0 -43 18t-18 44zM203 779h349 q144 0 246 102t102 247q0 147 -102 246q-102 103 -246 103h-349v-698z" />
<glyph unicode="S" horiz-adv-x="1060" d="M80 253q0 26 17.5 44t43.5 18q33 0 53 -28q13 -19 30 -40q45 -52 109 -86.5t160 -37.5q125 0 223 83q53 46 88 110.5t35 158.5q0 126 -83 222q-46 54 -106.5 85t-130.5 37q-78 8 -146.5 43t-119.5 94q-44 54 -68 117t-24 132q2 187 137 301q109 94 254 94q168 0 296 -139 q22 -26 38 -53q9 -15 9 -34q0 -25 -18 -43t-43 -18q-29 0 -41 16q-16 22 -39 50q-75 88 -181 95q-10 1 -19 1q-97 0 -176 -65q-86 -72 -93 -179q-1 -12 -1 -23q0 -42 12 -81q15 -49 51 -91q36 -43 81.5 -65.5t99.5 -27.5q95 -10 177.5 -52.5t145.5 -113.5q53 -65 82 -141 t29 -157q-2 -138 -46.5 -220.5t-119.5 -145.5q-134 -113 -302 -113q-211 0 -364 167q-17 19 -37 48q-13 17 -13 38z" />
<glyph unicode="T" horiz-adv-x="1360" d="M81 1538q0 26 18 44t43 18h1067q26 0 44 -18t18 -44q0 -25 -18 -43t-44 -18h-472v-1415q0 -26 -17.5 -44t-43.5 -18t-44 18t-18 44v1415h-472q-25 0 -43 18t-18 43z" />
<glyph unicode="U" d="M81 554v984q0 26 18 44t44 18t43.5 -18t17.5 -44v-984q0 -179 127 -305q126 -126 304 -126q179 0 305 126t126 305v984q0 26 18 44t44 18q25 0 43 -18t18 -44v-984q0 -230 -162 -392t-392 -162t-392 162q-81 81 -121.5 178.5t-40.5 213.5z" />
<glyph unicode="V" horiz-adv-x="1440" d="M80 1538q0 26 18 44t44 18q43 0 56 -35l518 -1334l519 1335q12 34 56 34q25 0 43 -18t18 -44q0 -17 -9 -39l-571 -1461q-5 -13 -12 -20q-18 -18 -44 -18q-27 0 -43 18q-6 7 -12 20l-572 1461q-9 23 -9 39z" />
<glyph unicode="W" horiz-adv-x="1920" d="M77 1538q0 26 18 44t44 18t44 -17q10 -11 14 -24l352 -1266l352 1267q3 11 15 23q19 17 43 17q26 0 44 -17q10 -11 15 -24l352 -1266l351 1266q5 14 16 25q17 16 43 16t43.5 -18t17.5 -44q0 -13 -5 -30l-402 -1454q-6 -22 -20 -36q-20 -18 -44 -18q-26 0 -44 18 q-14 15 -20 35l-347 1252l-345 -1251q-7 -21 -21 -36q-19 -18 -44 -18t-43 18q-15 15 -21 35l-403 1455q-5 17 -5 30z" />
<glyph unicode="X" horiz-adv-x="1440" d="M80 62q0 22 14 39l543 699l-546 704q-11 13 -11 34q0 26 18 44t44 18q30 0 51 -27l523 -672l523 672q23 27 52 27q25 0 43 -18t18 -44q0 -20 -10 -35l-547 -703l544 -699q13 -16 13 -39q0 -26 -18 -44t-43 -18q-29 0 -47 21l-528 677l-528 -677q-17 -21 -46 -21 q-26 0 -44 18t-18 44z" />
<glyph unicode="Y" d="M81 1538q0 26 18 44t44 18q30 0 49 -25l443 -664l443 664q18 25 50 25q25 0 43 -18t18 -44q0 -20 -10 -34l-482 -722v-720q0 -26 -18 -44t-44 -18t-43.5 18t-17.5 44v720l-483 722q-10 16 -10 34z" />
<glyph unicode="Z" horiz-adv-x="1440" d="M80 62q0 20 14 39l1070 1376h-1022q-26 0 -44 18t-18 43q0 26 18 44t44 18h1149q25 0 43 -18t18 -44q0 -20 -10 -34l-1074 -1381h1023q25 0 43 -18t18 -43q0 -26 -18 -44t-43 -18h-1149q-26 0 -44 18t-18 44z" />
<glyph unicode="[" horiz-adv-x="640" d="M98 -418v1958q0 26 18 44t44 18h332q26 0 44 -18t18 -44t-18 -44.5t-44 -18.5h-270v-1832h270q26 0 44 -18.5t18 -44.5t-18 -44t-44 -18h-332q-26 0 -44 18t-18 44z" />
<glyph unicode="\" horiz-adv-x="960" d="M95 1539q0 26 18 44t44 18t45 -18q8 -8 11 -16l664 -1644q6 -14 6 -27q0 -26 -18 -44t-44 -18t-44 16q-8 9 -12 18l-665 1643q-5 13 -5 28z" />
<glyph unicode="]" horiz-adv-x="640" d="M98 -418q0 26 18 44.5t44 18.5h270v1832h-270q-26 0 -44 18.5t-18 44.5t18 44t44 18h332q26 0 44 -18t18 -44v-1958q0 -26 -18 -44t-44 -18h-332q-26 0 -44 18t-18 44z" />
<glyph unicode="^" horiz-adv-x="960" d="M95 1042q0 18 8 32l336 503q9 11 21 18t29 7t29 -7t21 -18l336 -503q8 -14 8 -32q0 -26 -18 -44t-44 -18q-32 0 -49 22l-283 426l-283 -426q-19 -22 -49 -22q-26 0 -44 18t-18 44z" />
<glyph unicode="_" horiz-adv-x="960" d="M-71 -64q0 26 18 44.5t44 18.5h996q26 0 44 -18.5t18 -44.5t-18 -44t-44 -18h-996q-26 0 -44 18t-18 44z" />
<glyph unicode="`" horiz-adv-x="560" d="M99 1539q0 26 18 44t44 18t44 -18l252 -252q15 -17 15 -41q0 -26 -18 -44.5t-44 -18.5q-24 0 -43 16l-252 252q-8 9 -12 20.5t-4 23.5z" />
<glyph unicode="a" d="M80 560q0 232 164 396t396 164t396 -164t164 -396v-498q0 -26 -18 -44t-44 -18t-44.5 18t-18.5 44v141q-202 -203 -435 -203q-232 0 -396 164t-164 396zM204 560q0 -180 128 -308t308 -128t308 128q127 127 127 308t-127 308q-128 128 -308 128t-308 -128t-128 -308z" />
<glyph unicode="b" d="M80 560v978q0 26 18 44t44 18t44 -18t18 -44v-621l40 39q164 164 396 164t396 -164t164 -396t-164 -396t-396 -164t-396 164t-164 396zM204 560q0 -180 128 -308t308 -128t308 128q127 127 127 308t-127 308q-128 128 -308 128t-308 -128t-128 -308z" />
<glyph unicode="c" horiz-adv-x="1120" d="M80 560q0 232 164 396t396 164q103 0 196.5 -35t168.5 -100q9 -9 15.5 -22t6.5 -27q0 -26 -18 -44t-44 -18q-24 0 -40 15q-122 107 -285 107q-180 0 -308 -128q-127 -127 -127 -308t127 -308q128 -128 308 -128q79 0 152.5 29t132.5 78q15 12 37 12q26 0 44 -18.5 t18 -44.5t-19 -45q-76 -65 -169 -100t-196 -35q-232 0 -396 164t-164 396z" />
<glyph unicode="d" d="M80 560q0 232 164 396t396 164t396 -164l39 -39v621q0 26 18.5 44t44.5 18t44 -18t18 -44v-978q0 -232 -164 -396t-396 -164t-396 164t-164 396zM204 560q0 -180 128 -308t308 -128t308 128q127 127 127 308t-127 308q-128 128 -308 128t-308 -128t-128 -308z" />
<glyph unicode="e" d="M80 560q0 232 164 396t396 164t396 -164t164 -396q0 -26 -18 -44t-44 -18h-932q30 -150 126 -246q128 -128 308 -128q82 0 152 26.5t128 76.5q17 14 39 14q26 0 44 -18.5t18 -44.5t-16 -43q-156 -135 -365 -135q-232 0 -396 164t-164 396zM206 622h867q-28 149 -125 246 q-128 128 -308 128t-308 -128q-96 -96 -126 -246z" />
<glyph unicode="f" horiz-adv-x="800" d="M84 996q0 26 18 44t44 18h103v65q0 477 478 477q26 0 44 -18t18 -44t-18 -44.5t-44 -18.5q-353 0 -353 -352v-65h271q26 0 44 -18t18 -44t-18 -44.5t-44 -18.5h-271v-871q0 -26 -18 -44t-44 -18t-44.5 18t-18.5 44v871h-103q-26 0 -44 18.5t-18 44.5z" />
<glyph unicode="g" d="M80 561q0 232 164 395q164 164 396 164t396 -164q164 -163 164 -395v-566q0 -172 -125 -299q-176 -176 -426 -176t-425 176q-65 62 -105 135q-11 19 -11 37q0 26 18 44t44 18t45 -19q8 -7 14 -19q34 -60 83 -109q70 -70 154.5 -104.5t182.5 -34.5q198 0 338 140 q88 106 88 211v210q-183 -202 -435 -202q-232 0 -396 163q-164 164 -164 395zM204 561q0 -179 128 -307t308 -128t308 128q127 127 127 307q0 181 -127 308q-128 127 -308 127t-308 -127q-128 -128 -128 -308z" />
<glyph unicode="h" horiz-adv-x="1200" d="M81 62v1478q0 26 18 44t44 18t44 -18t18 -44v-598q184 178 394 178q216 0 366 -152q153 -152 153 -367v-539q0 -26 -18.5 -44t-44.5 -18t-44 18t-18 44v539q0 165 -116 278q-116 117 -278 117t-279 -117q-115 -114 -115 -278v-539q0 -26 -18 -44t-44 -18t-44 18t-18 44z " />
<glyph unicode="i" horiz-adv-x="480" d="M149 1390q0 34 24.5 58.5t58.5 24.5q35 0 59 -24.5t24 -58.5q0 -35 -24 -59t-59 -24q-34 0 -58.5 24t-24.5 59zM170 62v996q0 26 18 44t44 18t44.5 -18t18.5 -44v-996q0 -26 -18.5 -44t-44.5 -18t-44 18t-18 44z" />
<glyph unicode="j" horiz-adv-x="656" d="M3 -418q0 26 18.5 44.5t44.5 18.5q146 0 248 103q104 103 104 249v1061q0 26 18 44t44 18t44.5 -18t18.5 -44v-1061q0 -197 -140 -337t-337 -140q-26 0 -44.5 18t-18.5 44zM397 1390q0 34 24.5 58.5t58.5 24.5q35 0 59 -24.5t24 -58.5q0 -35 -24 -59t-59 -24 q-34 0 -58.5 24t-24.5 59z" />
<glyph unicode="k" horiz-adv-x="1120" d="M81 62v1478q0 26 18.5 44t44.5 18t44 -18t18 -44v-906l734 477q14 9 33 9q26 0 44 -18t18 -44q0 -32 -20 -47l-506 -331l509 -574q17 -18 17 -44t-18 -44t-44 -18t-45 20l-527 592l-195 -127v-423q0 -26 -18 -44t-44 -18t-44.5 18t-18.5 44z" />
<glyph unicode="l" horiz-adv-x="480" d="M87 62v1478q0 26 18 44t44 18t44.5 -18t18.5 -44v-1416h103q26 0 44.5 -18t18.5 -44t-18.5 -44t-44.5 -18h-166q-26 0 -44 18t-18 44z" />
<glyph unicode="m" horiz-adv-x="1760" d="M75 62v996q0 26 18.5 44t44.5 18t44 -18t18 -44v-67q152 129 311 129q180 0 308 -128q31 -32 65 -78q34 46 66 78q128 128 308 128t308 -128q127 -127 127 -308v-622q0 -26 -18 -44t-44 -18t-44 18t-18 44v622q0 129 -92 220q-92 92 -219 92q-128 0 -220 -92 q-91 -91 -91 -220v-622q0 -26 -18.5 -44t-44.5 -18t-44 18t-18 44v622q0 129 -91 220q-92 92 -220 92t-220 -92q-91 -91 -91 -220v-622q0 -26 -18 -44t-44 -18t-44.5 18t-18.5 44z" />
<glyph unicode="n" horiz-adv-x="1200" d="M81 62v996q0 26 18 44t44 18t44 -18t18 -44v-116q184 178 394 178q216 0 366 -152q153 -152 153 -367v-539q0 -26 -18.5 -44t-44.5 -18t-44 18t-18 44v539q0 165 -116 278q-116 117 -278 117t-279 -117q-115 -114 -115 -278v-539q0 -26 -18 -44t-44 -18t-44 18t-18 44z " />
<glyph unicode="o" d="M80 560q0 232 164 396t396 164t396 -164t164 -396t-164 -396t-396 -164t-396 164t-164 396zM204 560q0 -180 128 -308t308 -128t308 128q127 127 127 308t-127 308q-128 128 -308 128t-308 -128t-128 -308z" />
<glyph unicode="p" d="M80 -418v978q0 232 164 396t396 164t396 -164t164 -396t-164 -396t-396 -164t-396 164l-40 39v-621q0 -26 -18 -44t-44 -18t-44 18t-18 44zM204 560q0 -180 128 -308t308 -128t308 128q127 127 127 308t-127 308q-128 128 -308 128t-308 -128t-128 -308z" />
<glyph unicode="q" d="M80 560q0 232 164 396t396 164t396 -164t164 -396v-978q0 -26 -18 -44t-44 -18t-44.5 18t-18.5 44v621l-39 -39q-164 -164 -396 -164t-396 164t-164 396zM204 560q0 -180 128 -308t308 -128t308 128q127 127 127 308t-127 308q-128 128 -308 128t-308 -128t-128 -308z " />
<glyph unicode="r" horiz-adv-x="960" d="M83 62v996q0 26 18 44t44 18t44 -18t18 -44v-141q203 203 436 203q125 0 214 -39q16 -6 29 -19q17 -17 17 -44q0 -26 -18 -44t-44 -18q-16 0 -28 6q-70 34 -170 34q-180 0 -308 -128q-128 -127 -128 -308v-498q0 -26 -18 -44t-44 -18t-44 18t-18 44z" />
<glyph unicode="s" horiz-adv-x="1060" d="M82 809q0 93 70 165q144 146 376 146q124 0 233 -52.5t197 -148.5q11 -14 11 -35q0 -26 -18.5 -44.5t-44.5 -18.5q-25 0 -39 16l-31 31q-128 128 -308 128q-181 0 -291 -116q-30 -35 -30 -86q2 -30 18 -52t47 -33l511 -169h-1q46 -17 77 -33.5t47 -34.5q68 -68 68 -161 q0 -94 -71 -165q-143 -146 -375 -146q-251 0 -430 200q-11 15 -11 36q0 26 18 44.5t44 18.5q24 0 40 -16l31 -31q128 -128 308 -128t289 115q31 35 31 86q-5 64 -65 86l-510 169h1q-46 17 -77 33.5t-48 34.5q-67 69 -67 161z" />
<glyph unicode="t" horiz-adv-x="800" d="M84 1058q0 26 18.5 44t44.5 18h103v419q0 26 18 44t44 18t44.5 -18t18.5 -44v-419h187q26 0 44.5 -18t18.5 -44t-18.5 -44t-44.5 -18h-187v-602q0 -270 269 -270q26 0 44.5 -18t18.5 -44t-18.5 -44t-44.5 -18q-394 0 -394 394v602h-103q-26 0 -44.5 18t-18.5 44z" />
<glyph unicode="u" horiz-adv-x="1200" d="M81 519v539q0 26 18 44t44 18t44 -18t18 -44v-539q0 -164 115 -279q119 -116 279 -116q162 0 278 116q116 115 116 279v539q0 26 18 44t44 18t44.5 -18t18.5 -44v-996q0 -26 -18.5 -44t-44.5 -18t-44 18t-18 44v116q-184 -178 -394 -178q-213 0 -367 151 q-151 152 -151 368z" />
<glyph unicode="v" horiz-adv-x="1200" d="M81 1058q0 26 18 44t44 18t45 -17q6 -6 11 -16l400 -875l400 875q4 8 11 15q19 18 45 18t44.5 -17.5t18.5 -44.5q0 -13 -5 -24l-460 -1003q-4 -9 -11 -16q-15 -15 -43 -15q-27 0 -44 17q-7 7 -10 14l-460 1003q-4 10 -4 24z" />
<glyph unicode="w" horiz-adv-x="1600" d="M77 1058q0 26 18 44t44 18t45 -18q7 -7 12 -19l275 -824l271 813q7 20 18 31q18 17 43 17q26 0 43 -17q12 -12 18 -31l271 -813l274 825q4 10 12 18q18 18 46 18q26 0 44 -18t18 -44q0 -12 -5 -26l-331 -993q-4 -12 -15 -23q-16 -16 -43 -16t-44 17q-9 9 -14 22l-274 822 l-274 -822q-4 -12 -13 -21q-18 -18 -45 -18t-44 17q-9 9 -14 22l-331 993q-5 15 -5 26z" />
<glyph unicode="x" horiz-adv-x="1120" d="M81 62q0 21 12 38l384 461l-381 456q-15 16 -15 41q0 26 18.5 44t44.5 18t45 -19l369 -442l370 442q19 19 45 19t44 -18t18 -44q0 -24 -14 -41l-382 -456l385 -461q11 -17 11 -38q0 -26 -18 -44t-44 -18t-42 19l-373 445l-372 -445q-16 -19 -42 -19t-44.5 18t-18.5 44z " />
<glyph unicode="y" horiz-adv-x="1120" d="M81 1058q0 26 18.5 44t44.5 18t44 -18q9 -9 15 -25l355 -850l355 850q6 16 17 27q16 16 43 16q26 0 44 -18t19 -44q0 -10 -4 -22l-616 -1474q-5 -14 -14 -23q-19 -19 -45 -19t-44 18t-18 44q0 13 4 22l191 459l-405 970q-4 13 -4 25z" />
<glyph unicode="z" horiz-adv-x="1120" d="M81 62q0 21 12 38l746 896h-695q-26 0 -44.5 18t-18.5 44t18.5 44t44.5 18h829q26 0 44 -18t18 -44q0 -24 -14 -41l-746 -893h698q26 0 44 -18t18 -44t-18 -44t-44 -18h-829q-26 0 -44.5 18t-18.5 44z" />
<glyph unicode="{" horiz-adv-x="800" d="M84 560q0 26 18.5 44t44.5 18q186 0 186 187v481q0 311 311 311q26 0 44.5 -18t18.5 -44t-18.5 -44.5t-44.5 -18.5q-186 0 -186 -186v-481q0 -159 -92 -249q92 -90 92 -249v-480q0 -186 186 -186q26 0 44.5 -18.5t18.5 -44.5t-18.5 -44t-44.5 -18q-311 0 -311 311v480 q0 187 -186 187q-26 0 -44.5 18t-18.5 44z" />
<glyph unicode="|" horiz-adv-x="800" d="M333 -418v1958q0 26 18 44t44 18t44.5 -18t18.5 -44v-1958q0 -26 -18.5 -44t-44.5 -18t-44 18t-18 44z" />
<glyph unicode="}" horiz-adv-x="800" d="M84 -418q0 26 18.5 44.5t44.5 18.5q186 0 186 186v480q0 158 91 249q-91 91 -91 249v481q0 186 -186 186q-26 0 -44.5 18.5t-18.5 44.5t18.5 44t44.5 18q311 0 311 -311v-481q0 -187 186 -187q26 0 44.5 -18t18.5 -44t-18.5 -44t-44.5 -18q-186 0 -186 -187v-480 q0 -311 -311 -311q-26 0 -44.5 18t-18.5 44z" />
<glyph unicode="~" horiz-adv-x="960" d="M74 764q0 26 18 44.5t44 18.5q25 0 43 -17q56 -56 132 -56q67 0 116 40q88 79 208 79q129 0 220 -91q17 -18 17 -44t-18 -44t-44 -18t-44 17q-54 56 -131 56q-65 0 -118 -42q-87 -78 -206 -78q-129 0 -221 92q-8 9 -12 20.5t-4 22.5z" />
<glyph unicode="&#xa2;" horiz-adv-x="1120" d="M89 560q0 233 163 396q164 164 397 164q37 0 64 -3l119 296q11 25 34 35q9 4 24 4q26 0 44 -18.5t18 -43.5q0 -10 -5 -23l-110 -277q51 -20 96 -47t81 -58q10 -9 15.5 -22t5.5 -27q0 -26 -18 -44t-44 -18q-22 0 -40 15q-57 50 -142 84l-325 -810q94 -39 183 -39 q78 0 151.5 29t132.5 78q15 12 37 12q26 0 44 -18.5t18 -44.5q0 -25 -18 -45q-77 -65 -169.5 -100t-195.5 -35q-112 0 -229 48l-135 -340q-4 -13 -15 -24q-18 -18 -44 -18t-44 18t-18 44q0 14 5 26l142 358q-31 23 -59 52q-163 163 -163 396zM213 560q0 -178 147 -328 l305 765q-204 -8 -324 -129q-128 -127 -128 -308z" />
<glyph unicode="&#xa3;" horiz-adv-x="1040" d="M82 719q0 26 18 44t44 18h134q-29 154 -84 285l1 -1q-30 75 -30 148q0 162 115 276q58 57 127 85.5t152 28.5t152 -28.5t127 -85.5q29 -30 51 -61q12 -17 12 -39q0 -26 -18 -43.5t-44 -17.5q-29 0 -44 19q-18 26 -45 55q-80 77 -191 77t-191 -79q-79 -77 -79 -187 q0 -26 5.5 -51t16.5 -50q32 -75 55 -158t37 -173h322q26 0 44 -18t18 -44q0 -25 -18 -43t-44 -18h-312q1 -129 -22 -262t-72 -273h450l68 135q14 29 54 29q26 0 44 -17.5t18 -43.5q0 -17 -7 -30l-80 -159q-5 -10 -13 -18q-19 -19 -45 -19h-581q-26 0 -44 18t-18 43 q0 11 5 26q124 287 118 571h-144q-26 0 -44 18t-18 43z" />
<glyph unicode="&#xa5;" d="M80 555q0 26 18 43.5t44 17.5h436v168l-81 121h-355q-26 0 -44 17.5t-18 43.5t18 43.5t44 17.5h272l-325 479q-9 15 -9 36q0 25 18 43t44 18q31 0 50 -25l448 -666l448 666q17 25 50 25q26 0 44 -18t18 -43q0 -21 -11 -36l-323 -479h273q25 0 43 -18t18 -43 q0 -26 -18 -44q-18 -17 -43 -17h-356l-81 -121v-168h436q26 0 44 -17.5t18 -43.5t-18 -44t-44 -18h-436v-432q0 -25 -18 -43t-44 -18t-44 18t-18 43v432h-436q-26 0 -44 18t-18 44z" />
<glyph unicode="&#xa8;" horiz-adv-x="960" d="M144 1390q0 34 24 58.5t59 24.5t59 -24.5t24 -58.5q0 -35 -24 -59t-59 -24t-59 24t-24 59zM642 1390q0 34 24 58.5t59 24.5q34 0 58.5 -24.5t24.5 -58.5q0 -35 -24.5 -59t-58.5 -24q-35 0 -59 24t-24 59z" />
<glyph unicode="&#xa9;" horiz-adv-x="1760" d="M75 802q0 333 235 565q233 236 567 236q332 0 566 -236q235 -232 235 -565q0 -332 -235 -568q-235 -234 -566 -234q-332 0 -567 234q-235 236 -235 568zM161 802q0 -297 209 -507q212 -210 507 -210t505 210q211 211 211 507q0 297 -211 505q-208 211 -505 211 q-296 0 -507 -211q-209 -209 -209 -505zM322 804q0 231 163 394t394 163q102 0 195 -35t168 -100q22 -19 22 -48q0 -26 -18 -44t-44 -18q-23 0 -39 14q-121 106 -284 106q-180 0 -306 -126t-126 -306t126 -306q127 -127 306 -127q78 0 151.5 28.5t130.5 77.5q16 12 38 12 q26 0 44 -18.5t18 -44.5q0 -25 -19 -44q-76 -65 -168.5 -100t-194.5 -35q-231 0 -394 163t-163 394z" />
<glyph unicode="&#xab;" horiz-adv-x="960" d="M83 559q0 16 8 31l245 490q7 14 14 21q18 18 44 18t44 -18t18 -44q0 -15 -5 -26l-236 -471l236 -472q5 -11 5 -26q0 -26 -18 -44t-44 -18q-25 0 -40 14q-9 9 -18 24l-243 486q-10 19 -10 35zM507 559q0 16 8 31l245 490q7 14 14 21q18 18 44 18t44 -18t18 -44 q0 -15 -5 -26l-236 -471l236 -472q5 -11 5 -26q0 -26 -18 -44t-44 -18q-25 0 -40 14q-9 9 -18 24l-243 486q-10 19 -10 35z" />
<glyph unicode="&#xad;" horiz-adv-x="800" d="M79 560q0 26 18.5 44t44.5 18h497q26 0 44.5 -18t18.5 -44t-18.5 -44t-44.5 -18h-497q-26 0 -44.5 18t-18.5 44z" />
<glyph unicode="&#xae;" horiz-adv-x="1760" d="M82 800q0 332 234 564q233 235 566 235q331 0 565 -235q234 -232 234 -564q0 -331 -234 -567q-235 -233 -565 -233q-331 0 -566 233q-234 236 -234 567zM168 800q0 -296 208 -506q212 -209 506 -209t504 209q210 211 210 506q0 296 -210 504q-208 210 -504 210 q-295 0 -506 -210q-208 -209 -208 -504zM576 314v971q0 14 10 23t22 9h271q126 0 214 -88q89 -88 89 -213q0 -62 -22 -116t-67 -99q-21 -21 -49 -39.5t-61 -33.5l246 -394q7 -10 7 -20q0 -14 -10 -23.5t-23 -9.5q-20 0 -30 17l-260 418q-18 -3 -34 -3h-236v-399 q0 -14 -10.5 -23.5t-24.5 -9.5q-12 0 -22 9.5t-10 23.5zM643 779h236q97 0 167 70q70 68 70 167q0 96 -70 167q-71 68 -167 68h-236v-472z" />
<glyph unicode="&#xb4;" horiz-adv-x="560" d="M87 1288q0 25 14 41l252 252q18 18 45 18q26 0 44 -18t18 -44q0 -12 -4 -23.5t-13 -20.5l-252 -252q-17 -16 -42 -16q-26 0 -44 18.5t-18 44.5z" />
<glyph unicode="&#xb8;" horiz-adv-x="640" d="M86 -327q0 26 18 44t44 18q19 0 34 -9l81 -51q24 -12 51 -12q43 0 73.5 19.5t30.5 52.5q0 34 -30.5 53.5t-73.5 19.5q-26 0 -44 18t-18 44q0 11 3 20l40 143q5 15 17 27q17 17 43 17t44.5 -18t18.5 -44q0 -8 -2 -16l-21 -78q51 -22 82 -46q65 -57 65 -140q0 -81 -66 -139 q-67 -58 -162 -58q-53 0 -109 28l-91 54q-28 20 -28 53z" />
<glyph unicode="&#xbb;" horiz-adv-x="960" d="M83 62q0 15 5 26l236 472l-236 471q-5 11 -5 26q0 26 18 44t44 18t44 -18q7 -7 14 -21l245 -490q8 -15 8 -31t-10 -35l-243 -486q-9 -15 -18 -24q-15 -14 -40 -14q-26 0 -44 18t-18 44zM507 62q0 15 5 26l236 472l-236 471q-5 11 -5 26q0 26 18 44t44 18t44 -18 q7 -7 14 -21l245 -490q8 -15 8 -31t-10 -35l-243 -486q-9 -15 -18 -24q-15 -14 -40 -14q-26 0 -44 18t-18 44z" />
<glyph unicode="&#x2c6;" horiz-adv-x="800" d="M84 1348q0 32 32 55l248 165q14 8 31 8q18 0 32 -8l247 -165q33 -23 33 -55q0 -26 -18.5 -44t-44.5 -18q-22 0 -40 13l-209 139l-209 -139q-18 -13 -39 -13q-26 0 -44.5 18t-18.5 44z" />
<glyph unicode="&#x2da;" horiz-adv-x="560" d="M86 1412q0 78 55 133q57 55 134 55q78 0 133 -55t55 -133q0 -77 -55 -134q-55 -55 -133 -55q-77 0 -134 55q-55 57 -55 134zM166 1412q0 -45 32 -77t77 -32t77 32t32 77t-32 77t-77 32t-77 -32t-32 -77z" />
<glyph unicode="&#x2dc;" horiz-adv-x="960" d="M74 1415q0 26 18 44.5t44 18.5q25 0 43 -17q56 -56 132 -56q67 0 116 40q88 79 208 79q129 0 220 -91q17 -18 17 -44t-18 -44t-44 -18t-44 17q-54 56 -131 56q-65 0 -118 -42q-87 -78 -206 -78q-129 0 -221 92q-8 9 -12 20.5t-4 22.5z" />
<glyph unicode="&#x401;" d="M94 62v1476q0 26 18 44t44 18h985q25 0 43 -18t18 -44q0 -25 -18 -43t-43 -18h-924v-615h677q26 0 44 -18t18 -44t-18 -44t-44 -18h-677v-615h924q25 0 43 -18t18 -43q0 -26 -18 -44t-43 -18h-985q-26 0 -44 18t-18 44zM320 1870q0 34 24 58.5t59 24.5t59 -24.5t24 -58.5 q0 -35 -24 -59t-59 -24t-59 24t-24 59zM818 1870q0 34 24 58.5t59 24.5q34 0 58.5 -24.5t24.5 -58.5q0 -35 -24.5 -59t-58.5 -24q-35 0 -59 24t-24 59z" />
<glyph unicode="&#x402;" horiz-adv-x="1640" d="M80 1538q0 26 18 44t44 18h1066q26 0 44 -18t18 -44q0 -25 -18 -43t-44 -18h-472v-684q84 75 171 113t178 38q195 0 334 -139q138 -137 138 -333t-138 -335q-139 -137 -334 -137q-26 0 -43.5 18t-17.5 44q0 25 17.5 43t43.5 18q145 0 246 102q103 102 103 247 q0 144 -103 246q-100 103 -246 103q-144 0 -246 -102q-103 -103 -103 -246v-411q0 -26 -17.5 -44t-43.5 -18t-44 18t-18 44v1415h-471q-26 0 -44 18t-18 43z" />
<glyph unicode="&#x403;" horiz-adv-x="1200" d="M83 62v1475q0 27 18.5 45t43.5 18h902q26 0 44 -18t18 -44q0 -25 -18 -43t-44 -18h-840v-1416q-1 -25 -18 -43q-20 -18 -45 -18t-43 18t-18 44zM514 1768q0 25 14 41l252 252q18 18 45 18q26 0 44 -18t18 -44q0 -12 -4 -23.5t-13 -20.5l-252 -252q-17 -16 -42 -16 q-26 0 -44 18.5t-18 44.5z" />
<glyph unicode="&#x404;" horiz-adv-x="1480" d="M81 800q0 331 234 565q235 235 566 235q285 0 507 -182q18 -18 18 -44q0 -25 -18 -43t-43 -18q-26 0 -51 24q-173 140 -413 140q-280 0 -478 -198q-168 -168 -198 -417h758q26 0 44 -18t18 -44t-18 -44t-44 -18h-758q30 -250 198 -416q199 -199 478 -199q242 0 422 148 q15 10 35 10q26 0 44 -18t18 -44t-15 -41q-112 -87 -238 -132.5t-266 -45.5q-163 0 -306 61t-260 173q-112 117 -173 260t-61 306z" />
<glyph unicode="&#x405;" horiz-adv-x="1060" d="M96 253q0 26 17.5 44t43.5 18q33 0 53 -28q13 -19 30 -40q45 -52 109 -86.5t160 -37.5q125 0 223 83q53 46 88 110.5t35 158.5q0 126 -83 222q-46 54 -106.5 85t-130.5 37q-78 8 -146.5 43t-119.5 94q-44 54 -68 117t-24 132q2 187 137 301q109 94 254 94q168 0 296 -139 q22 -26 38 -53q9 -15 9 -34q0 -25 -18 -43t-43 -18q-29 0 -41 16q-16 22 -39 50q-75 88 -181 95q-109 7 -195 -64q-86 -72 -93 -179q-4 -55 11 -104t51 -91q36 -43 81.5 -65.5t99.5 -27.5q95 -10 177.5 -52.5t145.5 -113.5q53 -65 82 -141t29 -157q-2 -138 -46.5 -220.5 t-119.5 -145.5q-134 -113 -302 -113q-211 0 -364 167q-17 19 -37 48q-13 17 -13 38z" />
<glyph unicode="&#x406;" horiz-adv-x="480" d="M182 62v1476q0 26 17.5 44t43.5 18t44 -18t18 -44v-1476q0 -26 -18 -44t-44 -18t-43.5 18t-17.5 44z" />
<glyph unicode="&#x407;" horiz-adv-x="480" d="M-93 1870q0 34 24 58.5t59 24.5t59 -24.5t24 -58.5q0 -35 -24 -59t-59 -24t-59 24t-24 59zM178 62v1476q0 26 17.5 44t43.5 18t44 -18t18 -44v-1476q0 -26 -18 -44t-44 -18t-43.5 18t-17.5 44zM405 1870q0 34 24 58.5t59 24.5q34 0 58.5 -24.5t24.5 -58.5 q0 -35 -24.5 -59t-58.5 -24q-35 0 -59 24t-24 59z" />
<glyph unicode="&#x408;" horiz-adv-x="1120" d="M95 472q0 26 18 43.5t44 17.5t43.5 -17.5t17.5 -43.5q0 -144 102 -247q105 -102 247 -102q145 0 246 102q103 102 103 247v1066q0 26 18 44t43 18q26 0 44 -18t18 -44v-1066q0 -196 -138 -335q-139 -137 -334 -137t-334 137q-138 141 -138 335z" />
<glyph unicode="&#x409;" horiz-adv-x="2080" d="M77 62q0 13 6 27l571 1467q6 17 16 27q17 17 43 17t44 -18q10 -10 16 -26l269 -694h533q177 0 304 -127q126 -126 126 -304q0 -179 -126 -305t-304 -126h-288q-25 0 -44 18q-7 8 -12 19l-518 1332l-517 -1331q-4 -9 -13 -20q-18 -18 -44 -18t-44 18t-18 44zM1091 738 l239 -615h245q127 0 217 90t90 218t-90 217q-89 90 -217 90h-484z" />
<glyph unicode="&#x40a;" horiz-adv-x="1920" d="M78 62v1476q0 26 18 44t44 18t43.5 -18t17.5 -44v-676h698v676q0 26 17.5 44t43.5 18t44 -18t18 -44v-676h390q177 0 304 -127q126 -126 126 -304q0 -179 -126 -305t-304 -126h-452q-26 0 -43.5 18t-17.5 44v676h-698v-676q0 -26 -17.5 -44t-43.5 -18t-44 18t-18 44z M1022 123h390q127 0 217 90t90 218t-90 217q-89 90 -217 90h-390v-615z" />
<glyph unicode="&#x40b;" horiz-adv-x="1640" d="M80 1538q0 26 18 44t44 18h1066q26 0 44 -18t18 -44q0 -25 -18 -43t-44 -18h-472v-684q84 75 171 113t178 38q195 0 334 -139q138 -137 138 -333v-410q0 -26 -18 -44t-44 -18q-25 0 -43 18t-18 44v410q0 144 -103 246q-100 103 -246 103q-144 0 -246 -102 q-103 -103 -103 -246v-411q0 -26 -17.5 -44t-43.5 -18t-44 18t-18 44v1415h-471q-26 0 -44 18t-18 43z" />
<glyph unicode="&#x40c;" horiz-adv-x="1200" d="M95 62v1476q0 26 18 44t43 18q26 0 44 -18t18 -44v-752l795 795q19 19 46 19q26 0 44 -18t18 -44q0 -23 -18 -44l-589 -588l595 -808q11 -16 12 -33q0 -33 -25 -53q-17 -12 -35 -12q-34 0 -53 26l-583 790l-207 -207v-547q0 -26 -18 -44t-44 -18q-25 0 -43 18t-18 44z M484 1768q0 25 14 41l252 252q18 18 45 18q26 0 44 -18t18 -44q0 -12 -4 -23.5t-13 -20.5l-252 -252q-17 -16 -42 -16q-26 0 -44 18.5t-18 44.5z" />
<glyph unicode="&#x40e;" horiz-adv-x="1437" d="M81 1538q0 26 18 44t44 18q35 0 52 -29l522 -968l523 969q15 28 52 28q25 0 43 -18t18 -44q0 -15 -9 -32l-724 -1346q-22 -38 -54 -70q-90 -90 -218 -90q-103 0 -177 55q-31 25 -31 54q0 26 17.5 43.5t43.5 17.5q21 0 35 -11q48 -36 112 -36q74 0 130 54q24 24 35 47 l134 248l-557 1034q-9 17 -9 32zM410 1994q0 26 18.5 44t44.5 18t44 -18t18 -44q0 -47 60 -78q56 -26 126 -26t127 26q61 30 61 78q0 26 18 44t44 18t44 -18t19 -43q-6 -99 -90 -160q-47 -34 -102 -51.5t-121 -17.5q-64 0 -120.5 18t-102.5 50q-88 68 -88 160z" />
<glyph unicode="&#x40f;" d="M82 62v1476q0 26 18 44t44 18t43.5 -18t17.5 -44v-1415h862v1415q0 26 18 44t44 18q25 0 43 -18t18 -44v-1476q0 -26 -18 -44t-43 -18h-431v-267q0 -26 -18 -43.5t-44 -17.5t-43.5 17.5t-17.5 43.5v267h-431q-26 0 -44 18t-18 44z" />
<glyph unicode="&#x410;" horiz-adv-x="1440" d="M93 62q0 13 6 27l571 1467q6 16 16 27q17 17 43 17t44 -18q10 -10 16 -26l570 -1467q6 -14 6 -27q0 -26 -18 -44t-43 -18q-26 0 -43 15q-9 9 -15 23l-208 536h-617l-209 -536q-6 -14 -14 -22q-17 -16 -43 -16t-44 18t-18 44zM469 697h521l-261 672z" />
<glyph unicode="&#x411;" horiz-adv-x="1120" d="M83 62v1476q0 26 18 44t44 18h656q26 0 44 -18t18 -44q0 -25 -18 -43t-44 -18h-595v-533h349q195 0 334 -139q138 -137 138 -333t-138 -335q-139 -137 -334 -137h-410q-26 0 -44 18t-18 44zM206 123h349q145 0 246 102q103 102 103 247q0 144 -103 246q-100 103 -246 103 h-349v-698z" />
<glyph unicode="&#x412;" horiz-adv-x="1120" d="M95 62v1476q0 26 18 44t44 18h328q162 0 276 -114t114 -276t-134 -296q100 -48 161 -108q137 -139 137 -334q0 -196 -138 -335q-139 -137 -334 -137h-410q-26 0 -44 18t-18 44zM218 123h349q145 0 246 102q103 102 103 247q0 144 -103 246q-100 103 -246 103h-349v-698z M218 944h267q111 0 188 78q79 79 79 188t-79 188t-188 79h-267v-533z" />
<glyph unicode="&#x413;" horiz-adv-x="1200" d="M83 62v1475q0 27 18.5 45t43.5 18h902q26 0 44 -18t18 -44q0 -25 -18 -43t-44 -18h-840v-1416q-1 -25 -18 -43q-20 -18 -45 -18t-43 18t-18 44z" />
<glyph unicode="&#x414;" horiz-adv-x="1600" d="M80 62q0 25 18 43t44 18h40l557 1433q6 16 16 27q17 17 43 17t44 -18q10 -11 16 -26l557 -1433h40q26 0 43.5 -18t17.5 -43v-329q0 -26 -17.5 -43.5t-43.5 -17.5t-44 17.5t-18 43.5v267h-1190v-267q0 -26 -17.5 -43.5t-43.5 -17.5t-44 17.5t-18 43.5v329zM313 123h969 l-484 1246z" />
<glyph unicode="&#x415;" d="M94 62v1476q0 26 18 44t44 18h985q25 0 43 -18t18 -44q0 -25 -18 -43t-43 -18h-924v-615h677q26 0 44 -18t18 -44t-18 -44t-44 -18h-677v-615h924q25 0 43 -18t18 -43q0 -26 -18 -44t-43 -18h-985q-26 0 -44 18t-18 44z" />
<glyph unicode="&#x416;" horiz-adv-x="2080" d="M77 61q0 22 13 39l593 806l-587 588q-19 19 -19 44q0 26 18 44t44 18q27 0 46 -19l795 -795v752q0 26 17.5 44t43.5 18t44 -18t18 -44v-752l795 795q19 19 46 19q26 0 43.5 -18t17.5 -44q0 -25 -18 -44l-588 -588l595 -808q11 -16 11 -37q0 -25 -18 -43t-44 -18 q-33 0 -54 31l-579 785l-207 -207v-547q0 -26 -18 -44t-44 -18t-43.5 18t-17.5 44v547l-207 207l-588 -795q-16 -21 -47 -21q-25 0 -43 18t-18 43z" />
<glyph unicode="&#x417;" horiz-adv-x="1080" d="M84 451q0 26 17.5 44t43.5 18t44 -18t18 -44q0 -135 96 -232q97 -96 232 -96q134 0 232 96q96 97 96 232q0 134 -96 232q-96 96 -232 96q-26 0 -44 18t-18 44t18 44t44 18q120 0 203 84q84 84 84 203q0 117 -84 203q-84 84 -203 84t-203 -84t-84 -203q0 -26 -18 -44 t-44 -18t-43.5 18t-17.5 44q0 170 120 290t290 120t290 -120t120 -290q0 -171 -120 -291q-28 -27 -65 -54q53 -32 95 -74q131 -133 131 -320q0 -188 -132 -320q-131 -131 -319 -131q-187 0 -320 131q-131 133 -131 320z" />
<glyph unicode="&#x418;" horiz-adv-x="1440" d="M75 62q0 -26 18 -44t43 -18q30 0 46 18l1042 1340v-1296q0 -26 17.5 -44t43.5 -18t44 18t18 44v1476q0 26 -18 44t-44 18q-29 0 -47 -22l-1040 -1337v1297q0 26 -18 44t-44 18q-25 0 -43 -18t-18 -44v-1476z" />
<glyph unicode="&#x419;" horiz-adv-x="1440" d="M75 62v1476q0 26 18 44t43 18q26 0 44 -18t18 -44v-1297l1040 1337q18 22 47 22q26 0 44 -18t18 -44v-1476q0 -26 -18 -44t-44 -18t-43.5 18t-17.5 44v1296l-1042 -1340q-16 -18 -46 -18q-25 0 -43 18t-18 44zM399 1994q0 26 18.5 44t44.5 18t44 -18t18 -44q0 -47 60 -78 q56 -26 126 -26t127 26q61 30 61 78q0 26 18 44t44 18t44 -18t19 -43q-6 -99 -90 -160q-47 -34 -102 -51.5t-121 -17.5q-64 0 -120.5 18t-102.5 50q-88 68 -88 160z" />
<glyph unicode="&#x41a;" horiz-adv-x="1200" d="M95 62v1476q0 26 18 44t43 18q26 0 44 -18t18 -44v-752l795 795q19 19 46 19q26 0 44 -18t18 -44q0 -23 -18 -44l-589 -588l595 -808q11 -16 12 -33q0 -33 -25 -53q-17 -12 -35 -12q-34 0 -53 26l-583 790l-207 -207v-547q0 -26 -18 -44t-44 -18q-25 0 -43 18t-18 44z " />
<glyph unicode="&#x41b;" horiz-adv-x="1440" d="M81 62q0 13 6 27l571 1467q6 16 16 27q17 17 43 17t44 -18q10 -11 16 -26l570 -1467q6 -14 6 -27q0 -26 -18 -44t-43 -18q-23 0 -38 12q-11 10 -19 25l-518 1332l-517 -1331q-4 -10 -13 -20q-18 -18 -44 -18t-44 18t-18 44z" />
<glyph unicode="&#x41c;" horiz-adv-x="1920" d="M90 62q0 -26 18 -44t44 -18t44 17q10 11 14 24l352 1266l352 -1267q3 -11 15 -23q19 -17 43 -17q26 0 44 17q10 11 15 24l352 1266l351 -1266q5 -14 16 -25q17 -16 43 -16t43.5 18t17.5 44q0 13 -5 30l-402 1454q-6 22 -20 36q-20 18 -44 18q-26 0 -44 -18 q-14 -15 -20 -35l-347 -1252l-345 1251q-7 21 -21 36q-19 18 -44 18t-43 -18q-15 -15 -21 -35l-403 -1455q-5 -17 -5 -30z" />
<glyph unicode="&#x41d;" d="M94 62v1476q0 26 18 44t44 18t43.5 -18t17.5 -44v-676h862v676q0 26 18 44t44 18q25 0 43 -18t18 -44v-1476q0 -26 -18 -44t-43 -18q-26 0 -44 18t-18 44v676h-862v-676q0 -26 -17.5 -44t-43.5 -18t-44 18t-18 44z" />
<glyph unicode="&#x41e;" horiz-adv-x="1760" d="M91 800q0 331 234 565q235 235 566 235q333 0 565 -235q235 -234 235 -565t-235 -566q-233 -234 -565 -234q-163 0 -306 61t-260 173q-112 117 -173 260t-61 306zM214 800q0 -281 198 -479q199 -198 479 -198t478 198q199 198 199 479q0 280 -199 478q-199 199 -478 199 q-278 0 -479 -199q-198 -198 -198 -478z" />
<glyph unicode="&#x41f;" d="M82 62v1476q0 26 18 44t44 18h985q25 0 43 -18t18 -44v-1476q0 -26 -18 -44t-43 -18q-26 0 -44 18t-18 44v1415h-862v-1415q0 -26 -17.5 -44t-43.5 -18t-44 18t-18 44z" />
<glyph unicode="&#x420;" horiz-adv-x="1080" d="M96 62v1476q0 26 17.5 44t43.5 18h328q214 0 362 -151q151 -148 151 -362q0 -212 -151 -363q-150 -150 -362 -150h-266v-512q0 -26 -18 -44t-44 -18t-43.5 18t-17.5 44zM219 697h266q161 0 275 114q115 115 115 276t-115 275q-114 115 -275 115h-266v-780z" />
<glyph unicode="&#x421;" horiz-adv-x="1480" d="M93 800q0 331 234 565q235 235 566 235q285 0 507 -182q18 -18 18 -44q0 -25 -18 -43t-43 -18q-26 0 -51 24q-173 140 -413 140q-280 0 -479 -199q-198 -198 -198 -478q0 -281 198 -479t479 -198q242 0 424 149q13 9 33 9q26 0 44 -18t18 -44q0 -25 -15 -41 q-112 -87 -238 -132.5t-266 -45.5q-163 0 -306 61t-260 173q-112 117 -173 260t-61 306z" />
<glyph unicode="&#x422;" horiz-adv-x="1360" d="M94 1538q0 26 18 44t43 18h1067q26 0 44 -18t18 -44q0 -25 -18 -43t-44 -18h-472v-1415q0 -26 -17.5 -44t-43.5 -18t-44 18t-18 44v1415h-472q-25 0 -43 18t-18 43z" />
<glyph unicode="&#x423;" horiz-adv-x="1437" d="M81 1538q0 26 18 44t44 18q35 0 52 -29l522 -968l523 969q15 28 52 28q25 0 43 -18t18 -44q0 -15 -9 -32l-724 -1346q-22 -38 -54 -70q-90 -90 -218 -90q-103 0 -177 55q-31 25 -31 54q0 26 17.5 43.5t43.5 17.5q21 0 35 -11q48 -36 112 -36q74 0 130 54q24 24 35 47 l134 248l-557 1034q-9 17 -9 32z" />
<glyph unicode="&#x424;" horiz-adv-x="1760" d="M79 800q0 128 60.5 242t172.5 206q101 78 230 126.5t276 59.5v104q0 26 17.5 44t43.5 18t44 -18t18 -44v-104q152 -10 277.5 -57t228.5 -129h-1q233 -186 233 -448q0 -261 -233 -447q-205 -168 -505 -187v-104q0 -26 -18 -44t-44 -18t-43.5 18t-17.5 44v104 q-299 19 -506 187q-233 185 -233 447zM202 800q0 -107 51.5 -198.5t149.5 -165.5q82 -60 188 -98.5t227 -49.5v1024q-121 -12 -226.5 -49.5t-188.5 -97.5q-98 -75 -149.5 -166.5t-51.5 -198.5zM941 288q123 12 227 49.5t188 98.5q98 74 149 165.5t51 198.5q0 216 -200 365 q-166 123 -415 147v-1024z" />
<glyph unicode="&#x425;" horiz-adv-x="1440" d="M93 62q0 22 14 39l543 699l-546 704q-11 13 -11 34q0 26 18 44t44 18q30 0 51 -27l523 -672l523 672q23 27 52 27q25 0 43 -18t18 -44q0 -20 -10 -35l-547 -703l544 -699q13 -16 13 -39q0 -26 -18 -44t-43 -18q-29 0 -47 21l-528 677l-528 -677q-17 -21 -46 -21 q-26 0 -44 18t-18 44z" />
<glyph unicode="&#x426;" horiz-adv-x="1440" d="M81 62v1476q0 26 18 44t44 18t43.5 -18t17.5 -44v-1415h862v1415q0 26 18 44t43 18q26 0 44 -18t18 -44v-1415h103q25 0 43 -18t18 -43q0 -96 -19.5 -181.5t-57.5 -166.5q-7 -17 -14 -24q-18 -18 -44 -18t-44 17.5t-18 43.5q0 16 7 29q43 80 61 238h-1081q-26 0 -44 18 t-18 44z" />
<glyph unicode="&#x427;" d="M82 1128v410q0 26 18 44t44 18t43.5 -18t17.5 -44v-410q0 -178 127 -304q126 -127 304 -127q179 0 305 127q126 126 126 304v410q0 26 18 44t44 18q25 0 43 -18t18 -44v-1476q0 -26 -18 -44t-43 -18q-26 0 -44 18t-18 44v713l-39 -39q-81 -81 -178.5 -121.5t-213.5 -40.5 t-213.5 40.5t-178.5 121.5t-121.5 178.5t-40.5 213.5z" />
<glyph unicode="&#x428;" horiz-adv-x="1600" d="M80 62v1476q0 26 18 44t44 18t43.5 -18t17.5 -44v-1415h534v1415q0 26 17.5 44t43.5 18t44 -18t18 -44v-1415h533v1415q0 26 18 44t44 18t43.5 -18t17.5 -44v-1476q0 -26 -17.5 -44t-43.5 -18h-1313q-26 0 -44 18t-18 44z" />
<glyph unicode="&#x429;" horiz-adv-x="1760" d="M79 62v1476q0 26 18 44t44 18t43.5 -18t17.5 -44v-1415h534v1415q0 26 17.5 44t43.5 18t44 -18t18 -44v-1415h533v1415q0 26 18 44t44 18q25 0 43 -18t18 -44v-1415h103q26 0 43.5 -18t17.5 -43q0 -190 -77 -348q-7 -17 -14 -24q-18 -18 -44 -18t-44 17.5t-18 43.5 q0 14 8 29q20 39 35.5 98t24.5 140h-1409q-26 0 -44 18t-18 44z" />
<glyph unicode="&#x42a;" horiz-adv-x="1360" d="M0 1538q0 26 18 44t44 18h328q26 0 44 -18t18 -44v-676h389q178 0 305 -127q126 -126 126 -304q0 -179 -126 -305t-305 -126h-451q-26 0 -43.5 18t-17.5 44v1415h-267q-26 0 -44 18t-18 43zM452 123h389q126 0 218 90q90 91 90 218t-90 217t-218 90h-389v-615z" />
<glyph unicode="&#x42b;" horiz-adv-x="1440" d="M81 62v1476q0 26 18 44t44 18t43.5 -18t17.5 -44v-676h390q178 0 305 -127q126 -126 126 -304q0 -179 -126 -305t-305 -126h-451q-26 0 -44 18t-18 44zM204 123h390q126 0 218 90q90 91 90 218t-90 217t-218 90h-390v-615zM1230 62v1476q0 26 18 44t44 18q25 0 43 -18 t18 -44v-1476q0 -26 -18 -44t-43 -18q-26 0 -44 18t-18 44z" />
<glyph unicode="&#x42c;" horiz-adv-x="1120" d="M83 62v1476q0 26 18 44t44 18t43.5 -18t17.5 -44v-676h390q178 0 305 -127q126 -126 126 -304q0 -179 -126 -305t-305 -126h-451q-26 0 -44 18t-18 44zM206 123h390q126 0 218 90q90 91 90 218t-90 217t-218 90h-390v-615z" />
<glyph unicode="&#x42d;" horiz-adv-x="1480" d="M86 1374q0 -25 18 -43t43 -18q26 0 51 24q173 140 413 140q280 0 478 -198q168 -168 198 -417h-758q-26 0 -44 -18t-18 -44t18 -44t44 -18h758q-30 -250 -198 -416q-199 -199 -478 -199q-242 0 -422 148q-15 10 -35 10q-26 0 -44 -18t-18 -44t15 -41q112 -87 238 -132.5 t266 -45.5q163 0 306 61t260 173q112 117 173 260t61 306q0 331 -234 565q-235 235 -566 235q-285 0 -507 -182q-18 -18 -18 -44z" />
<glyph unicode="&#x42e;" horiz-adv-x="2080" d="M77 62v1476q0 26 18 44t44 18t43.5 -18t17.5 -44v-676h207q27 298 233 504q234 234 565 234q332 0 566 -235q234 -234 234 -565t-234 -566q-234 -234 -566 -234q-331 0 -565 235q-206 206 -233 503h-207v-676q0 -26 -17.5 -44t-43.5 -18t-44 18t-18 44zM529 800 q0 -282 197 -479q199 -198 479 -198t478 198q199 198 199 479q0 280 -199 478q-199 199 -478 199q-278 0 -479 -199q-197 -197 -197 -478z" />
<glyph unicode="&#x42f;" horiz-adv-x="1200" d="M79 62q0 -26 18 -44t44 -18q32 0 54 33l391 625q21 -2 47 -2h349v-594q0 -26 18 -44t44 -18q25 0 43 18t18 44v1476q0 26 -18 44t-43 18h-411q-196 0 -333 -138q-138 -138 -138 -334t137 -333q65 -65 160 -108l-369 -592q-11 -16 -11 -33zM285 1128q0 147 102 246 q102 103 246 103h349v-698h-349q-144 0 -246 102t-102 247z" />
<glyph unicode="&#x430;" d="M92 560q0 232 164 396t396 164t396 -164t164 -396v-498q0 -26 -18 -44t-44 -18t-44.5 18t-18.5 44v141q-202 -203 -435 -203q-232 0 -396 164t-164 396zM216 560q0 -180 128 -308t308 -128t308 128q127 127 127 308t-127 308q-128 128 -308 128t-308 -128t-128 -308z" />
<glyph unicode="&#x431;" d="M80 560v415q0 232 164 396t396 164h48q183 0 338 77q12 6 29 6q26 0 44 -18t18 -44q0 -28 -18 -44q-6 -7 -17 -13q-89 -45 -187 -67t-207 -22h-48q-181 0 -308 -127q-128 -128 -128 -308v-58l40 39q164 164 396 164t396 -164t164 -396t-164 -396t-396 -164t-396 164 t-164 396zM204 560q0 -180 128 -308t308 -128t308 128q127 127 127 308t-127 308q-128 128 -308 128t-308 -128t-128 -308z" />
<glyph unicode="&#x432;" horiz-adv-x="1040" d="M82 62v996q0 26 18 44t44 18h415q130 0 220 -91q91 -90 91 -220q0 -59 -22 -113t-65 -105q50 -27 80 -59q90 -92 90 -221q0 -130 -91 -221q-90 -90 -220 -90h-498q-26 0 -44 18t-18 44zM207 124h435q75 0 132 55q55 57 55 132q0 77 -55 132q-57 55 -132 55h-435v-374z M207 622h352q77 0 132 55t55 132q0 75 -55 132q-55 55 -132 55h-352v-374z" />
<glyph unicode="&#x433;" horiz-adv-x="880" d="M84 62v747q0 130 90 220q91 91 221 91h332q26 0 44 -18t18 -44t-18 -44t-44 -18h-332q-77 0 -132 -55q-55 -57 -55 -132v-747q0 -26 -18 -44t-44 -18t-44 18t-18 44z" />
<glyph unicode="&#x434;" d="M80 561q0 232 164 395q164 164 396 164t396 -164q164 -163 164 -395v-566q0 -172 -125 -299q-176 -176 -426 -176t-425 176q-65 62 -105 135q-11 19 -11 37q0 26 18 44t44 18t45 -19q8 -7 14 -19q34 -60 83 -109q70 -70 154.5 -104.5t182.5 -34.5q198 0 338 140 q88 106 88 211v210q-183 -202 -435 -202q-232 0 -396 163q-164 164 -164 395zM204 561q0 -179 128 -307t308 -128t308 128q127 127 127 307q0 181 -127 308q-128 127 -308 127t-308 -127q-128 -128 -128 -308z" />
<glyph unicode="&#x435;" d="M80 560q0 232 164 396t396 164t396 -164t164 -396q0 -26 -18 -44t-44 -18h-932q30 -150 126 -246q128 -128 308 -128q82 0 152 26.5t128 76.5q17 14 39 14q26 0 44 -18.5t18 -44.5t-16 -43q-156 -135 -365 -135q-232 0 -396 164t-164 396zM206 622h867q-28 149 -125 246 q-128 128 -308 128t-308 -128q-96 -96 -126 -246z" />
<glyph unicode="&#x436;" horiz-adv-x="1760" d="M75 62q0 27 19 45l532 456l-534 452q-17 16 -17 43q0 26 18.5 44t44.5 18q25 0 41 -16l643 -544v498q0 26 18 44t44 18t44.5 -18t18.5 -44v-498l642 544q17 16 42 16q26 0 44 -18t18 -44q0 -27 -16 -43l-534 -452l532 -456q18 -16 18 -45q0 -26 -18 -44t-44 -18 q-25 0 -40 15l-545 466l-99 -85v-334q0 -26 -18.5 -44t-44.5 -18t-44 18t-18 44v334l-99 85l-545 -466q-17 -15 -40 -15q-26 0 -44.5 18t-18.5 44z" />
<glyph unicode="&#x437;" horiz-adv-x="960" d="M113 913q0 19 9 33q27 43 74 81q116 92 281 92t279 -86.5t114 -213.5q0 -126 -154 -215q154 -134 154 -283q0 -128 -114.5 -224.5t-278.5 -96.5q-165 0 -281 93q-42 33 -69 72q-12 16 -12 37q0 26 18.5 44t43.5 18q32 0 51 -26q37 -45 62 -62q78 -52 187 -52t189 59 t80 138q0 89 -79.5 153.5t-189.5 64.5q-26 0 -44 18t-18 44t18 44t44 18q107 0 188 42.5t81 113.5q0 80 -80.5 128t-188.5 48q-109 0 -187 -53q-38 -27 -61 -60q-4 -7 -9 -13q-19 -18 -45 -18q-25 0 -43.5 18t-18.5 44z" />
<glyph unicode="&#x438;" horiz-adv-x="1200" d="M81 519v539q0 26 18 44t44 18t44 -18t18 -44v-539q0 -164 115 -279q119 -116 279 -116q162 0 278 116q116 115 116 279v539q0 26 18 44t44 18t44.5 -18t18.5 -44v-996q0 -26 -18.5 -44t-44.5 -18t-44 18t-18 44v116q-184 -178 -394 -178q-213 0 -367 151 q-151 152 -151 368z" />
<glyph unicode="&#x439;" horiz-adv-x="1200" d="M81 519v539q0 26 18 44t44 18t44 -18t18 -44v-539q0 -164 115 -279q119 -116 279 -116q162 0 278 116q116 115 116 279v539q0 26 18 44t44 18t44.5 -18t18.5 -44v-996q0 -26 -18.5 -44t-44.5 -18t-44 18t-18 44v116q-184 -178 -394 -178q-213 0 -367 151 q-151 152 -151 368zM288 1514q0 26 18.5 44t44.5 18t44 -18t18 -44q0 -47 60 -78q56 -26 126 -26t127 26q61 30 61 78q0 26 18 44t44 18t44 -18t19 -43q-6 -99 -90 -160q-47 -34 -102 -51.5t-121 -17.5q-64 0 -120.5 18t-102.5 50q-88 68 -88 160z" />
<glyph unicode="&#x43a;" horiz-adv-x="1040" d="M82 62v996q0 26 18 44t44 18t44.5 -18t18.5 -44v-498l642 544q17 16 42 16q26 0 44 -18t18 -44q0 -25 -16 -43l-534 -452l532 -456q18 -17 18 -45q0 -26 -18 -44t-44 -18q-23 0 -40 15l-545 466l-99 -85v-334q0 -26 -18.5 -44t-44.5 -18t-44 18t-18 44z" />
<glyph unicode="&#x43b;" horiz-adv-x="1200" d="M81 60q0 -26 18 -44t44 -18t45 17q6 6 11 16l400 875l400 -875q4 -8 11 -15q19 -18 45 -18t44.5 17.5t18.5 44.5q0 13 -5 24l-460 1003q-4 9 -11 16q-15 15 -43 15q-27 0 -44 -17q-7 -7 -10 -14l-460 -1003q-4 -10 -4 -24z" />
<glyph unicode="&#x43c;" horiz-adv-x="1600" d="M77 61q0 -26 18 -44t44 -18t45 18q7 7 12 19l275 824l271 -813q7 -20 18 -31q18 -17 43 -17q26 0 43 17q12 12 18 31l271 813l274 -825q4 -10 12 -18q18 -18 46 -18q26 0 44 18t18 44q0 12 -5 26l-331 993q-4 12 -15 23q-16 16 -43 16t-44 -17q-9 -9 -14 -22l-274 -822 l-274 822q-4 12 -13 21q-18 18 -45 18t-44 -17q-9 -9 -14 -22l-331 -993q-5 -15 -5 -26z" />
<glyph unicode="&#x43d;" horiz-adv-x="1080" d="M82 62v996q0 26 18 44t44 18t44 -18t18 -44v-436h664v436q0 26 18 44t44 18t44 -18t18 -44v-996q0 -26 -18 -44t-44 -18t-44 18t-18 44v436h-664v-436q0 -26 -18 -44t-44 -18t-44 18t-18 44z" />
<glyph unicode="&#x43e;" d="M80 560q0 232 164 396t396 164t396 -164t164 -396t-164 -396t-396 -164t-396 164t-164 396zM204 560q0 -180 128 -308t308 -128t308 128q127 127 127 308t-127 308q-128 128 -308 128t-308 -128t-128 -308z" />
<glyph unicode="&#x43f;" horiz-adv-x="1200" d="M81 62v996q0 26 18 44t44 18t44 -18t18 -44v-116q184 178 394 178q216 0 366 -152q153 -152 153 -367v-539q0 -26 -18.5 -44t-44.5 -18t-44 18t-18 44v539q0 165 -116 278q-116 117 -278 117t-279 -117q-115 -114 -115 -278v-539q0 -26 -18 -44t-44 -18t-44 18t-18 44z " />
<glyph unicode="&#x440;" d="M80 -418v978q0 232 164 396t396 164t396 -164t164 -396t-164 -396t-396 -164t-396 164l-40 39v-621q0 -26 -18 -44t-44 -18t-44 18t-18 44zM204 560q0 -180 128 -308t308 -128t308 128q127 127 127 308t-127 308q-128 128 -308 128t-308 -128t-128 -308z" />
<glyph unicode="&#x441;" horiz-adv-x="1120" d="M93 560q0 232 164 396t396 164q103 0 196.5 -35t168.5 -100q9 -9 15.5 -22t6.5 -27q0 -26 -18 -44t-44 -18q-24 0 -40 15q-122 107 -285 107q-180 0 -308 -128q-127 -127 -127 -308t127 -308q128 -128 308 -128q79 0 152.5 29t132.5 78q15 12 37 12q26 0 44 -18.5 t18 -44.5t-19 -45q-76 -65 -169 -100t-196 -35q-232 0 -396 164t-164 396z" />
<glyph unicode="&#x442;" horiz-adv-x="1760" d="M75 62v996q0 26 18.5 44t44.5 18t44 -18t18 -44v-67q152 129 311 129q180 0 308 -128q31 -32 65 -78q34 46 66 78q128 128 308 128t308 -128q127 -127 127 -308v-622q0 -26 -18 -44t-44 -18t-44 18t-18 44v622q0 129 -92 220q-92 92 -219 92q-128 0 -220 -92 q-91 -91 -91 -220v-622q0 -26 -18.5 -44t-44.5 -18t-44 18t-18 44v622q0 129 -91 220q-92 92 -220 92t-220 -92q-91 -91 -91 -220v-622q0 -26 -18 -44t-44 -18t-44.5 18t-18.5 44z" />
<glyph unicode="&#x443;" horiz-adv-x="1120" d="M81 1058q0 26 18.5 44t44.5 18t44 -18q9 -9 15 -25l355 -850l355 850q6 16 17 27q16 16 43 16q26 0 44 -18t19 -44q0 -10 -4 -22l-616 -1474q-5 -14 -14 -23q-19 -19 -45 -19t-44 18t-18 44q0 13 4 22l191 459l-405 970q-4 13 -4 25z" />
<glyph unicode="&#x444;" horiz-adv-x="1920" d="M74 560q0 233 140 397q140 163 337 163q181 0 353 -179v597q0 26 18 44t44 18t44 -18t18 -44v-597q170 179 353 179q196 0 336 -163q141 -165 141 -397t-141 -397q-140 -163 -336 -163q-183 0 -353 179v-597q0 -26 -18 -44t-44 -18t-44 18t-18 44v597 q-172 -179 -353 -179q-197 0 -337 163q-140 164 -140 397zM198 560q0 -180 101 -307q103 -129 252 -129q75 0 137 32.5t114 97.5v-1q102 126 102 307t-102 307v-1q-52 65 -114 97.5t-137 32.5q-148 0 -252 -130q-101 -127 -101 -306zM1028 560q0 -182 101 -307 q103 -129 252 -129q147 0 251 130v-1q101 125 101 307t-101 307v-1q-104 130 -251 130q-148 0 -252 -130q-101 -125 -101 -306z" />
<glyph unicode="&#x445;" horiz-adv-x="1120" d="M81 62q0 21 12 38l384 461l-381 456q-15 16 -15 41q0 26 18.5 44t44.5 18t45 -19l369 -442l370 442q19 19 45 19t44 -18t18 -44q0 -24 -14 -41l-382 -456l385 -461q11 -17 11 -38q0 -26 -18 -44t-44 -18t-42 19l-373 445l-372 -445q-16 -19 -42 -19t-44.5 18t-18.5 44z " />
<glyph unicode="&#x446;" horiz-adv-x="1360" d="M79 519v539q0 26 18 44t44 18t44.5 -18t18.5 -44v-539q0 -164 115 -279q118 -116 279 -116q162 0 278 116t116 279v539q0 26 18 44t44 18t44 -18t18 -44v-934h104q26 0 44 -18t18 -44q0 -189 -78 -352q-6 -15 -14 -23q-19 -19 -45 -19t-44 18t-18 44q0 15 7 29 q49 101 67 241h-103q-26 0 -44 18t-18 44v116q-185 -178 -394 -178q-214 0 -367 151q-152 154 -152 368z" />
<glyph unicode="&#x447;" horiz-adv-x="1040" d="M82 809v249q0 26 18 44t44 18t44.5 -18t18.5 -44v-249q0 -129 91 -220t220 -91q128 0 219 91q92 91 92 219v250q0 26 18 44t44 18t44 -18t18 -44v-996q0 -26 -18 -44t-44 -18t-44 18t-18 44v440q-153 -129 -311 -129q-180 0 -308 128t-128 308z" />
<glyph unicode="&#x448;" horiz-adv-x="1760" d="M67 436v622q0 26 18 44t44 18t44 -18t18 -44v-622q0 -129 92 -220q92 -92 219 -92q128 0 220 92q91 91 91 220v622q0 26 18.5 44t44.5 18t44 -18t18 -44v-622q0 -129 91 -220q92 -92 220 -92t220 92q91 91 91 220v622q0 26 18 44t44 18t44.5 -18t18.5 -44v-996 q0 -26 -18.5 -44t-44.5 -18t-44 18t-18 44v67q-152 -129 -311 -129q-180 0 -308 128q-31 32 -65 78q-34 -46 -66 -78q-128 -128 -308 -128t-308 128q-127 127 -127 308z" />
<glyph unicode="&#x449;" horiz-adv-x="1920" d="M74 436v622q0 26 18 44t44 18t44 -18t18 -44v-622q0 -129 92 -220q92 -92 219 -92q128 0 220 92q92 91 92 220v622q0 26 18 44t44 18t44 -18t18 -44v-622q0 -129 91 -220q92 -92 220 -92t220 92q91 91 91 220v622q0 26 18 44t44 18t44.5 -18t18.5 -44v-934h103 q26 0 44.5 -18t18.5 -44q0 -189 -78 -351q-8 -18 -15 -25q-18 -18 -44 -18t-44 18t-18 44q0 15 7 29q50 102 66 241h-103q-26 0 -44 18t-18 44v67q-152 -129 -311 -129q-180 0 -308 128q-31 30 -65 78q-38 -51 -66 -78q-128 -128 -308 -128q-178 0 -308 128 q-127 127 -127 308z" />
<glyph unicode="&#x44a;" d="M39 1058q0 26 18 44t44 18h332q26 0 44 -18t18 -44v-436h394q130 0 220 -91q91 -90 91 -220t-91 -221q-90 -90 -220 -90h-456q-26 0 -44 18t-18 44v934h-270q-26 0 -44 18t-18 44zM495 124h394q77 0 132 55q55 57 55 132q0 77 -55 132t-132 55h-394v-374z" />
<glyph unicode="&#x44b;" d="M82 62v998q2 25 19 42q18 18 44 18t44 -18t18 -44v-436h394q130 0 220 -91q91 -90 91 -220t-91 -221q-90 -90 -220 -90h-456q-26 0 -44.5 18t-18.5 44zM207 124h394q75 0 132 55q55 57 55 132q0 77 -55 132q-57 55 -132 55h-394v-374zM1051 62v996q0 26 18 44t44 18 t44.5 -18t18.5 -44v-996q0 -26 -18.5 -44t-44.5 -18t-44 18t-18 44z" />
<glyph unicode="&#x44c;" horiz-adv-x="1000" d="M82 62v998q2 25 19 42q18 18 44 18t44 -18t18 -44v-436h394q130 0 220 -91q91 -90 91 -220t-91 -221q-90 -90 -220 -90h-456q-26 0 -44.5 18t-18.5 44zM207 124h394q75 0 132 55q55 57 55 132q0 77 -55 132q-57 55 -132 55h-394v-374z" />
<glyph unicode="&#x44d;" horiz-adv-x="1120" d="M81 936q0 30 22 49q77 65 169.5 100t195.5 35q232 0 396 -164t164 -396t-164 -396t-396 -164q-103 0 -195.5 35t-169.5 100q-18 18 -18 45q0 26 18 44.5t44 18.5q22 0 37 -12q59 -49 132 -78t152 -29q180 0 308 128q50 49 80.5 110t45.5 136h-509q-26 0 -44.5 18 t-18.5 44t18.5 44t44.5 18h509q-30 152 -126 246q-128 128 -308 128q-162 0 -284 -107q-18 -15 -40 -15q-26 0 -44.5 18t-18.5 44z" />
<glyph unicode="&#x44e;" horiz-adv-x="1600" d="M77 62v996q0 26 18 44t44 18t44 -18t18 -44v-436h211q26 200 161 334q162 164 396 164q232 0 396 -164t164 -396t-164 -396t-396 -164q-234 0 -396 164q-135 134 -161 334h-211v-436q0 -26 -18 -44t-44 -18t-44 18t-18 44zM533 560q0 -180 128 -308t308 -128t308 128 q127 127 127 308t-127 308q-128 128 -308 128t-308 -128t-128 -308z" />
<glyph unicode="&#x44f;" horiz-adv-x="1000" d="M41 60q0 17 14 43l186 351q17 31 53 75q-52 33 -78 60q-92 89 -92 220q0 130 91 220q91 91 220 91h415q26 0 44 -18t18 -44v-996q0 -26 -18 -44t-44 -18t-44 18t-18 44v436h-270q-76 0 -131 -55q-23 -23 -36 -49l-190 -355q-7 -15 -14 -22q-17 -17 -43 -17t-44.5 18 t-18.5 42zM249 809q0 -78 55 -132q55 -55 131 -55h353v374h-353q-76 0 -131 -55t-55 -132z" />
<glyph unicode="&#x451;" d="M80 560q0 232 164 396t396 164t396 -164t164 -396q0 -26 -18 -44t-44 -18h-932q30 -150 126 -246q128 -128 308 -128q82 0 152 26.5t128 76.5q17 14 39 14q26 0 44 -18.5t18 -44.5t-16 -43q-156 -135 -365 -135q-232 0 -396 164t-164 396zM206 622h867q-28 149 -125 246 q-128 128 -308 128t-308 -128q-96 -96 -126 -246zM305 1390q0 34 24 58.5t59 24.5t59 -24.5t24 -58.5q0 -35 -24 -59t-59 -24t-59 24t-24 59zM803 1390q0 34 24 58.5t59 24.5q34 0 58.5 -24.5t24.5 -58.5q0 -35 -24.5 -59t-58.5 -24q-35 0 -59 24t-24 59z" />
<glyph unicode="&#x452;" horiz-adv-x="1320" d="M38 1390q0 26 18.5 44t44.5 18h103v104q0 26 18.5 44t44.5 18t44 -18t18 -44v-104h352q26 0 44.5 -18t18.5 -44t-18.5 -44.5t-44.5 -18.5h-352v-385q184 178 394 178q214 0 366 -152q152 -151 152 -367v-770q0 -129 -91 -220q-90 -91 -220 -91q-60 0 -107 19 q-14 7 -23 17q-15 15 -15 40q0 26 18 44t44 18q12 0 26 -5q28 -8 57 -8q78 0 132 55q55 55 55 131v770q0 165 -116 278q-116 117 -278 117t-279 -117q-115 -114 -115 -278v-539q0 -26 -18 -44t-44 -18t-44.5 18t-18.5 44v1265h-103q-26 0 -44.5 18.5t-18.5 44.5z" />
<glyph unicode="&#x453;" horiz-adv-x="880" d="M84 62v747q0 130 90 220q91 91 221 91h332q26 0 44 -18t18 -44t-18 -44t-44 -18h-332q-77 0 -132 -55q-55 -57 -55 -132v-747q0 -26 -18 -44t-44 -18t-44 18t-18 44zM314 1288q0 25 14 41l252 252q18 18 45 18q26 0 44 -18t18 -44q0 -12 -4 -23.5t-13 -20.5l-252 -252 q-17 -16 -42 -16q-26 0 -44 18.5t-18 44.5z" />
<glyph unicode="&#x454;" horiz-adv-x="1120" d="M90 560q0 -232 164 -396t396 -164q103 0 195.5 35t169.5 100q18 18 18 45q0 26 -18 44.5t-44 18.5q-22 0 -37 -12q-59 -49 -132 -78t-152 -29q-180 0 -308 128q-50 49 -80.5 110t-45.5 136h509q26 0 44.5 18t18.5 44t-18.5 44t-44.5 18h-509q30 152 126 246 q128 128 308 128q162 0 284 -107q18 -15 40 -15q26 0 44.5 18t18.5 44q0 30 -22 49q-77 65 -169.5 100t-195.5 35q-232 0 -396 -164t-164 -396z" />
<glyph unicode="&#x455;" horiz-adv-x="1060" d="M82 809q0 93 70 165q144 146 376 146q124 0 233 -52.5t197 -148.5q11 -14 11 -35q0 -26 -18.5 -44.5t-44.5 -18.5q-25 0 -39 16l-31 31q-128 128 -308 128q-181 0 -291 -116q-30 -35 -30 -86q2 -30 18 -52t47 -33l511 -169h-1q46 -17 77 -33.5t47 -34.5q68 -68 68 -161 q0 -94 -71 -165q-143 -146 -375 -146q-251 0 -430 200q-11 15 -11 36q0 26 18 44.5t44 18.5q24 0 40 -16l31 -31q128 -128 308 -128t289 115q31 35 31 86q-5 64 -65 86l-510 169h1q-46 17 -77 33.5t-48 34.5q-67 69 -67 161z" />
<glyph unicode="&#x456;" horiz-adv-x="480" d="M149 1390q0 34 24.5 58.5t58.5 24.5q35 0 59 -24.5t24 -58.5q0 -35 -24 -59t-59 -24q-34 0 -58.5 24t-24.5 59zM170 62v996q0 26 18 44t44 18t44.5 -18t18.5 -44v-996q0 -26 -18.5 -44t-44.5 -18t-44 18t-18 44z" />
<glyph unicode="&#x457;" horiz-adv-x="600" d="M-33 1390q0 34 24 58.5t59 24.5t59 -24.5t24 -58.5q0 -35 -24 -59t-59 -24t-59 24t-24 59zM230 62v996q0 26 18 44t44 18t44.5 -18t18.5 -44v-996q0 -26 -18.5 -44t-44.5 -18t-44 18t-18 44zM465 1390q0 34 24 58.5t59 24.5q34 0 58.5 -24.5t24.5 -58.5q0 -35 -24.5 -59 t-58.5 -24q-35 0 -59 24t-24 59z" />
<glyph unicode="&#x458;" horiz-adv-x="656" d="M3 -418q0 26 18.5 44.5t44.5 18.5q146 0 248 103q104 103 104 249v1061q0 26 18 44t44 18t44.5 -18t18.5 -44v-1061q0 -197 -140 -337t-337 -140q-26 0 -44.5 18t-18.5 44zM397 1390q0 34 24.5 58.5t58.5 24.5q35 0 59 -24.5t24 -58.5q0 -35 -24 -59t-59 -24 q-34 0 -58.5 24t-24.5 59z" />
<glyph unicode="&#x459;" horiz-adv-x="1800" d="M75 62q0 13 4 24l461 1003q3 6 7 11q18 20 47 20q28 0 44 -17q5 -6 9 -14l215 -467h561q130 0 220 -91q91 -90 91 -220t-91 -221q-90 -90 -220 -90h-373q-26 0 -45 18q-6 6 -11 15l-400 875l-401 -875q-5 -10 -11 -15q-18 -18 -45 -18q-26 0 -44 18t-18 44zM919 498 l172 -374h332q77 0 132 55q55 57 55 132q0 77 -55 132t-132 55h-504z" />
<glyph unicode="&#x45a;" horiz-adv-x="1760" d="M75 62v996q0 26 18.5 44t44.5 18t44 -18t18 -44v-436h664v436q0 26 18 44t44 18t44 -18t18 -44v-436h395q130 0 220 -91q91 -90 91 -220t-91 -221q-90 -90 -220 -90h-457q-26 0 -44 18t-18 44v436h-664v-436q0 -26 -18 -44t-44 -18t-44.5 18t-18.5 44zM988 124h395 q77 0 132 55q55 57 55 132q0 77 -55 132t-132 55h-395v-374z" />
<glyph unicode="&#x45b;" horiz-adv-x="1320" d="M38 1374q0 26 18.5 44t44.5 18h103v104q0 26 18.5 44t44.5 18t44 -18t18 -44v-104h352q26 0 44.5 -18t18.5 -44t-18.5 -44.5t-44.5 -18.5h-352v-369q184 178 394 178q214 0 366 -152q152 -151 152 -367v-539q0 -26 -18 -44t-44 -18t-44 18t-18 44v539q0 165 -116 278 q-116 117 -278 117t-279 -117q-115 -114 -115 -278v-539q0 -26 -18 -44t-44 -18t-44.5 18t-18.5 44v1249h-103q-26 0 -44.5 18.5t-18.5 44.5z" />
<glyph unicode="&#x45c;" horiz-adv-x="1040" d="M82 62v996q0 26 18 44t44 18t44.5 -18t18.5 -44v-498l642 544q17 16 42 16q26 0 44 -18t18 -44q0 -25 -16 -43l-534 -452l532 -456q18 -17 18 -45q0 -26 -18 -44t-44 -18q-23 0 -40 15l-545 466l-99 -85v-334q0 -26 -18.5 -44t-44.5 -18t-44 18t-18 44zM394 1288 q0 25 14 41l252 252q18 18 45 18q26 0 44 -18t18 -44q0 -12 -4 -23.5t-13 -20.5l-252 -252q-17 -16 -42 -16q-26 0 -44 18.5t-18 44.5z" />
<glyph unicode="&#x45e;" horiz-adv-x="1120" d="M81 1058q0 26 18.5 44t44.5 18t44 -18q9 -9 15 -25l355 -850l355 850q6 16 17 27q16 16 43 16q26 0 44 -18t19 -44q0 -10 -4 -22l-616 -1474q-5 -14 -14 -23q-19 -19 -45 -19t-44 18t-18 44q0 13 4 22l191 459l-405 970q-4 13 -4 25zM250 1514q0 26 18.5 44t44.5 18 t44 -18t18 -44q0 -47 60 -78q56 -26 126 -26t127 26q61 30 61 78q0 26 18 44t44 18t44 -18t19 -43q-6 -99 -90 -160q-47 -34 -102 -51.5t-121 -17.5q-64 0 -120.5 18t-102.5 50q-88 68 -88 160z" />
<glyph unicode="&#x45f;" horiz-adv-x="1120" d="M81 62v996q0 26 18.5 44t44.5 18t44 -18t18 -44v-934h705v934q0 26 18 44t44 18t44 -18t18 -44v-996q0 -26 -18 -44t-44 -18h-352v-270q0 -26 -18.5 -44t-44.5 -18t-44 18t-18 44v270h-352q-26 0 -44.5 18t-18.5 44z" />
<glyph unicode="&#x490;" horiz-adv-x="1200" d="M83 62v1476q1 26 19 44t43 18h839q-8 68 -24 127t-41 110q-7 14 -7 30q0 26 17.5 43.5t43.5 17.5t44 -18q8 -8 15 -24q38 -81 57.5 -166.5t19.5 -181.5q0 -25 -18 -43t-44 -18h-841v-1415q0 -25 -17 -44q-20 -18 -45 -18t-43 18t-18 44z" />
<glyph unicode="&#x491;" horiz-adv-x="880" d="M84 62v747q0 130 90 220q91 91 221 91h268q-17 136 -66 240q-7 13 -7 30q0 26 18 44t44 18t44 -19q8 -8 15 -24q78 -162 78 -351q0 -26 -18 -44t-44 -18h-332q-77 0 -132 -55q-55 -57 -55 -132v-747q0 -26 -18 -44t-44 -18t-44 18t-18 44z" />
<glyph unicode="&#x492;" horiz-adv-x="1360" d="M82 800q0 26 18 44t43 18h103v676q1 26 19 44t44 18h901q26 0 44 -18t18 -44q0 -25 -18 -43t-44 -18h-841v-615h513q26 0 43.5 -18t17.5 -44t-17.5 -44t-43.5 -18h-513v-676q0 -25 -17 -44q-20 -18 -45 -18t-43 18t-18 44v676h-103q-25 0 -43 18t-18 44z" />
<glyph unicode="&#x493;" horiz-adv-x="1040" d="M82 560q0 26 18 44t44 18h104v187q0 130 90 220q91 91 221 91h332q26 0 44 -18t18 -44t-18 -44t-44 -18h-332q-75 0 -132 -55q-55 -57 -55 -132v-187h270q26 0 44 -18t18 -44t-18 -44t-44 -18h-270v-436q0 -26 -18 -44t-44 -18t-44 18t-18 44v436h-104q-26 0 -44 18 t-18 44z" />
<glyph unicode="&#x496;" horiz-adv-x="2080" d="M77 65q0 17 12 33l594 808l-587 588q-19 19 -19 44q0 26 18 44t44 18q27 0 46 -19l795 -795v752q0 26 17.5 44t43.5 18t44 -18t18 -44v-752l795 795q19 19 46 19q26 0 43.5 -18t17.5 -44q0 -25 -18 -44l-588 -588l595 -808q11 -17 11 -42q-1 -94 -19.5 -179t-56.5 -163 q-7 -16 -15 -24q-18 -18 -44 -18t-43.5 17.5t-17.5 43.5q0 16 7 29q57 108 65 280l-571 774l-207 -207v-547q0 -26 -18 -44t-44 -18t-43.5 18t-17.5 44v547l-207 207l-583 -789q-18 -23 -43 -26q-28 -4 -49 15.5t-21 48.5z" />
<glyph unicode="&#x497;" horiz-adv-x="1760" d="M75 62q0 25 19 45l532 456l-534 452q-17 20 -17 43q0 26 18.5 44t44.5 18q25 0 41 -16l643 -544v498q0 26 18 44t44 18t44.5 -18t18.5 -44v-498l642 544q17 16 42 16q26 0 44 -18t18 -44q0 -25 -16 -43l-534 -452l534 -457l-2 1q18 -20 18 -45q0 -189 -78 -351 q-6 -14 -15 -24q-18 -19 -44 -19t-44 18t-18 44q0 16 7 29q55 100 67 275l-522 447l-99 -85v-334q0 -26 -18.5 -44t-44.5 -18t-44 18t-18 44v334l-99 85l-545 -466q-18 -15 -40 -15q-26 0 -44.5 18t-18.5 44z" />
<glyph unicode="&#x49a;" horiz-adv-x="1200" d="M83 62v1476q0 26 18 44t43 18q26 0 44 -18t18 -44v-752l795 795q19 19 46 19q26 0 44 -18t18 -44q0 -23 -19 -44l-588 -588l595 -808q12 -15 12 -42q-2 -94 -20.5 -179t-56.5 -163q-9 -18 -15 -24q-18 -18 -44 -18t-43.5 17.5t-17.5 43.5q0 18 7 29q55 102 65 280 l-571 774l-207 -207v-547q0 -26 -18 -44t-44 -18q-25 0 -43 18t-18 44z" />
<glyph unicode="&#x49b;" horiz-adv-x="1040" d="M82 62v996q0 26 18 44t44 18t44.5 -18t18.5 -44v-498l642 544q17 16 42 16q26 0 44 -18t18 -44t-16 -43l-534 -452l534 -457q16 -19 16 -44q0 -189 -78 -351q-7 -17 -14 -24q-19 -19 -45 -19t-44 18t-18 44q0 17 7 29q55 100 67 275l-522 447l-99 -85v-334 q0 -26 -18.5 -44t-44.5 -18t-44 18t-18 44z" />
<glyph unicode="&#x49c;" horiz-adv-x="1200" d="M83 62v1476q0 26 18 44t43 18q26 0 44 -18t18 -44v-752l205 205v301q0 26 18 44t44 18q25 0 43 -18t18 -44v-178l467 467q19 19 46 19q26 0 44 -18t18 -44q0 -23 -19 -44l-556 -557v-75l561 -762q14 -17 14 -38q0 -26 -18 -44t-43 -18q-32 0 -52 27l-462 626v-345 q0 -26 -18 -44t-43 -18q-26 0 -44 18t-18 44v506l-205 -205v-547q0 -26 -18 -44t-44 -18q-25 0 -43 18t-18 44z" />
<glyph unicode="&#x49d;" horiz-adv-x="1040" d="M82 62v996q0 26 18 44t44 18t44.5 -18t18.5 -44v-498l165 141v274q0 26 18.5 44t44.5 18t44 -18t18 -44v-169l352 298q17 16 42 16q26 0 44 -18t18 -44q0 -28 -16 -43l-440 -372v-161l438 -375q18 -18 18 -45q0 -26 -18 -44t-44 -18q-25 0 -40 15l-354 302v-172 q0 -26 -18 -44t-44 -18t-44.5 18t-18.5 44v279l-66 57l-99 -85v-334q0 -26 -18.5 -44t-44.5 -18t-44 18t-18 44z" />
<glyph unicode="&#x4a2;" horiz-adv-x="1440" d="M81 62v1476q0 26 18 44t44 18t43.5 -18t17.5 -44v-676h862v676q0 26 18 44t43 18q26 0 44 -18t18 -44v-1415h103q25 0 43 -18t18 -43q0 -96 -19.5 -181.5t-57.5 -166.5q-6 -16 -14 -24q-18 -18 -44 -18t-44 17.5t-18 43.5q0 16 7 29q22 40 38.5 101t24.5 137h-99 q-25 0 -43 18t-18 44v676h-862v-676q0 -26 -17.5 -44t-43.5 -18t-44 18t-18 44z" />
<glyph unicode="&#x4a3;" horiz-adv-x="1200" d="M80 62v996q0 26 18 44t44 18t44.5 -18t18.5 -44v-436h663v436q0 26 18.5 44t44.5 18t44 -18t18 -44v-934h104q26 0 44 -18t18 -44q0 -189 -78 -351q-6 -14 -15 -24q-18 -19 -44 -19t-44 18t-18 44q0 17 7 29q22 41 38.5 102.5t24.5 138.5h-99q-26 0 -44.5 18t-18.5 44 v436h-663v-436q0 -26 -18.5 -44t-44.5 -18t-44 18t-18 44z" />
<glyph unicode="&#x4ae;" d="M94 1538q0 26 18 44t44 18q30 0 49 -25l443 -664l443 664q18 25 50 25q25 0 43 -18t18 -44q0 -20 -10 -34l-482 -722v-720q0 -26 -18 -44t-44 -18t-43.5 18t-17.5 44v720l-483 722q-10 16 -10 34z" />
<glyph unicode="&#x4af;" horiz-adv-x="1200" d="M81 1058q0 26 18 44t44 18t45 -18q6 -6 11 -15l400 -875l400 875q4 9 10 15q20 18 46 18t44.5 -18t18.5 -44q0 -14 -5 -24l-452 -984v-469q0 -26 -18 -44t-44 -18t-44 18t-18 44v469l-452 984q-4 11 -4 24z" />
<glyph unicode="&#x4b0;" d="M82 1538q0 26 18 44t44 18q31 0 49 -25l443 -664l442 663q19 26 51 26q25 0 43 -18t18 -44q0 -18 -10 -34l-482 -722v-85h349q26 0 44 -17.5t18 -43.5t-18 -44t-44 -18h-349v-512q0 -26 -18 -44t-44 -18t-43.5 18t-17.5 44v512h-348q-26 0 -44 18t-18 44t18 43.5t44 17.5 h348v85l-483 722q-10 16 -10 34z" />
<glyph unicode="&#x4b1;" horiz-adv-x="1200" d="M81 1058q0 26 18 44t44 18q25 0 43 -16q7 -6 13 -17l400 -875l400 874q6 13 13 18q17 16 43 16t44.5 -18t18.5 -44q0 -14 -5 -24l-456 -993h315q26 0 44.5 -18t18.5 -44t-18.5 -44t-44.5 -18h-311v-335q0 -26 -18 -44t-44 -18t-44 18t-18 44v335h-311q-26 0 -44 18 t-18 44t18 44t44 18h315l-456 993q-4 11 -4 24z" />
<glyph unicode="&#x4b2;" horiz-adv-x="1440" d="M81 62q0 23 14 39l543 699l-546 704q-11 16 -11 34q0 26 18 44t44 18q30 0 51 -27l523 -672l523 672q23 27 52 27q25 0 43 -18t18 -44q0 -20 -10 -35l-547 -703l544 -699q13 -18 13 -39q0 -96 -19.5 -181.5t-57.5 -166.5q-7 -17 -14 -24q-18 -18 -44 -18t-44 17.5 t-18 43.5q0 15 7 29q27 51 44 120.5t22 158.5l-512 658l-528 -678q-17 -21 -46 -21q-26 0 -44 18t-18 44z" />
<glyph unicode="&#x4b3;" horiz-adv-x="1120" d="M81 62q0 23 12 38l384 461l-381 456q-15 16 -15 41q0 26 18.5 44t44.5 18t45 -19l369 -442l370 442q19 19 45 19t44 -18t18 -44q0 -24 -14 -41l-382 -456l385 -461q11 -16 11 -38q0 -188 -77 -351q-7 -16 -15 -24q-18 -19 -44 -19t-44.5 18t-18.5 44q0 16 8 29 q27 51 44 121.5t22 160.5l-352 423l-372 -445q-16 -19 -42 -19t-44.5 18t-18.5 44z" />
<glyph unicode="&#x4b8;" d="M82 1128v410q0 26 18 44t44 18t43.5 -18t17.5 -44v-410q0 -178 127 -304q48 -49 108 -79.5t135 -45.5v511q0 26 17.5 44t43.5 18t44 -18t18 -44v-511q148 30 243 125q126 126 126 304v410q0 26 18 44t44 18q25 0 43 -18t18 -44v-1476q0 -26 -18 -44t-43 -18q-26 0 -44 18 t-18 44v713l-39 -39q-132 -132 -330 -159v-269q0 -26 -18 -44t-44 -18t-43.5 18t-17.5 44v269q-197 27 -331 159q-81 81 -121.5 178.5t-40.5 213.5z" />
<glyph unicode="&#x4b9;" horiz-adv-x="1040" d="M82 809v249q0 26 18 44t44 18t44.5 -18t18.5 -44v-249q0 -129 91 -220q57 -57 157 -87v390q0 26 18.5 44t44.5 18t44 -18t18 -44v-390q100 30 157 87q92 91 92 219v250q0 26 18 44t44 18t44 -18t18 -44v-996q0 -26 -18 -44t-44 -18t-44 18t-18 44v440 q-120 -103 -249 -125v-149q0 -26 -18 -44t-44 -18t-44.5 18t-18.5 44v149q-147 26 -245 124q-128 128 -128 308z" />
<glyph unicode="&#x4ba;" d="M90 62v1476q0 26 18 44t43 18q26 0 44 -18t18 -44v-713l39 39q81 81 178.5 121.5t213.5 40.5t213.5 -40.5t178.5 -121.5t121.5 -178.5t40.5 -213.5v-410q0 -26 -18 -44t-44 -18t-43.5 18t-17.5 44v410q0 178 -127 304q-126 127 -304 127q-179 0 -305 -127 q-126 -126 -126 -304v-410q0 -26 -18 -44t-44 -18q-25 0 -43 18t-18 44z" />
<glyph unicode="&#x4bb;" horiz-adv-x="1200" d="M81 62v1478q0 26 18 44t44 18t44 -18t18 -44v-598q184 178 394 178q216 0 366 -152q153 -152 153 -367v-539q0 -26 -18.5 -44t-44.5 -18t-44 18t-18 44v539q0 165 -116 278q-116 117 -278 117t-279 -117q-115 -114 -115 -278v-539q0 -26 -18 -44t-44 -18t-44 18t-18 44z " />
<glyph unicode="&#x4d8;" horiz-adv-x="1760" d="M79 800q0 26 18 44t44 18h1414q-14 125 -63.5 228.5t-133.5 188.5q-198 198 -479 198q-280 0 -502 -224q-20 -18 -44 -18q-26 0 -44 18t-18 43t16 41q261 263 592 263q333 0 565 -235q235 -234 235 -565t-235 -566q-233 -234 -565 -234q-163 0 -306 61t-260 173 q-112 117 -173 260t-61 306zM203 738q30 -248 198 -416q201 -199 478 -199q280 0 479 199q169 169 197 416h-1352z" />
<glyph unicode="&#x4d9;" d="M80 560q0 26 18 44t44 18h932q-30 150 -126 246q-128 128 -308 128q-82 0 -152 -26.5t-128 -76.5q-17 -14 -39 -14q-26 0 -44 18.5t-18 44.5t16 43q156 135 365 135q232 0 396 -164t164 -396t-164 -396t-396 -164t-396 164t-164 396zM207 498q28 -149 125 -246 q128 -128 308 -128t308 128q96 96 126 246h-867z" />
<glyph unicode="&#x4e8;" horiz-adv-x="1760" d="M79 800q0 331 234 565q235 235 566 235q333 0 565 -235q235 -234 235 -565t-235 -566q-233 -234 -565 -234q-163 0 -306 61t-260 173q-112 117 -173 260t-61 306zM203 738q30 -248 198 -416q201 -199 478 -199q280 0 479 199q169 169 197 416h-1352zM203 862h1352 q-14 125 -63.5 228.5t-133.5 188.5q-198 198 -479 198q-279 0 -478 -198q-168 -170 -198 -417z" />
<glyph unicode="&#x4e9;" d="M80 560q0 232 164 396t396 164t396 -164t164 -396t-164 -396t-396 -164t-396 164t-164 396zM206 498q30 -150 126 -246q128 -128 308 -128t308 128q97 97 125 246h-867zM206 622h867q-28 149 -125 246q-128 128 -308 128t-308 -128q-96 -96 -126 -246z" />
<glyph unicode="&#x2000;" horiz-adv-x="1039" />
<glyph unicode="&#x2001;" horiz-adv-x="2079" />
<glyph unicode="&#x2002;" horiz-adv-x="1039" />
<glyph unicode="&#x2003;" horiz-adv-x="2079" />
<glyph unicode="&#x2004;" horiz-adv-x="693" />
<glyph unicode="&#x2005;" horiz-adv-x="519" />
<glyph unicode="&#x2006;" horiz-adv-x="346" />
<glyph unicode="&#x2007;" horiz-adv-x="346" />
<glyph unicode="&#x2008;" horiz-adv-x="259" />
<glyph unicode="&#x2009;" horiz-adv-x="415" />
<glyph unicode="&#x200a;" horiz-adv-x="115" />
<glyph unicode="&#x2010;" horiz-adv-x="800" d="M79 560q0 26 18.5 44t44.5 18h497q26 0 44.5 -18t18.5 -44t-18.5 -44t-44.5 -18h-497q-26 0 -44.5 18t-18.5 44z" />
<glyph unicode="&#x2011;" horiz-adv-x="800" d="M79 560q0 26 18.5 44t44.5 18h497q26 0 44.5 -18t18.5 -44t-18.5 -44t-44.5 -18h-497q-26 0 -44.5 18t-18.5 44z" />
<glyph unicode="&#x2012;" horiz-adv-x="800" d="M79 560q0 26 18.5 44t44.5 18h497q26 0 44.5 -18t18.5 -44t-18.5 -44t-44.5 -18h-497q-26 0 -44.5 18t-18.5 44z" />
<glyph unicode="&#x2013;" horiz-adv-x="800" d="M-82 560q0 26 18.5 44t44.5 18h829q26 0 44 -18t18 -44t-18 -44t-44 -18h-829q-26 0 -44.5 18t-18.5 44z" />
<glyph unicode="&#x2014;" horiz-adv-x="1920" d="M-92 560q0 26 18 44t44 18h1991q26 0 44.5 -18t18.5 -44t-18.5 -44t-44.5 -18h-1991q-26 0 -44 18t-18 44z" />
<glyph unicode="&#x2018;" horiz-adv-x="480" d="M129 1233q0 85 40.5 177t111.5 180q11 11 28 11t29 -12t12 -29q0 -8 -4 -18q-26 -65 -40 -126.5t-14 -121.5q0 -58 13 -113t38 -107q7 -16 7 -33q0 -35 -24.5 -59t-58.5 -24q-51 0 -76 49q-62 109 -62 226z" />
<glyph unicode="&#x2019;" horiz-adv-x="480" d="M129 1000q0 8 4 18q26 65 40 126.5t14 121.5q0 58 -13 113t-38 107q-7 16 -7 33q0 35 24.5 59t58.5 24q51 0 76 -49q62 -109 62 -226q0 -85 -40.5 -177t-111.5 -180q-11 -11 -28 -11t-29 12t-12 29z" />
<glyph unicode="&#x201a;" horiz-adv-x="480" d="M129 237q0 35 24.5 59t58.5 24q51 0 76 -49q62 -109 62 -226q0 -85 -40.5 -177t-111.5 -180q-11 -11 -28 -11t-29 12t-12 29q0 8 4 18q26 65 40 126.5t14 121.5q0 58 -13 113t-38 107q-7 16 -7 33z" />
<glyph unicode="&#x201c;" horiz-adv-x="760" d="M80 1233q0 85 40.5 177t111.5 180q11 11 28 11t29 -12t12 -29q0 -8 -4 -18q-26 -65 -40 -126.5t-14 -121.5q0 -58 13 -113t38 -107q7 -16 7 -33q0 -35 -24.5 -59t-58.5 -24q-51 0 -76 49q-62 109 -62 226zM438 1233q0 85 40.5 177t111.5 180q11 11 28 11t29 -12t12 -29 q0 -8 -4 -18q-26 -65 -40 -126.5t-14 -121.5q0 -58 13 -113t38 -107q7 -16 7 -33q0 -35 -24.5 -59t-58.5 -24q-51 0 -76 49q-62 109 -62 226z" />
<glyph unicode="&#x201d;" horiz-adv-x="760" d="M80 999q0 8 4 18q26 65 40 126.5t14 121.5q0 58 -13 113t-38 107q-7 16 -7 33q0 35 24.5 59t58.5 24q51 0 76 -49q62 -109 62 -226q0 -85 -40.5 -177t-111.5 -180q-11 -11 -28 -11t-29 12t-12 29zM438 999q0 8 4 18q26 65 40 126.5t14 121.5q0 58 -13 113t-38 107 q-7 16 -7 33q0 35 24.5 59t58.5 24q51 0 76 -49q62 -109 62 -226q0 -85 -40.5 -177t-111.5 -180q-11 -11 -28 -11t-29 12t-12 29z" />
<glyph unicode="&#x201e;" horiz-adv-x="760" d="M80 237q0 35 24.5 59t58.5 24q51 0 76 -49q62 -109 62 -226q0 -85 -40.5 -177t-111.5 -180q-11 -11 -28 -11t-29 12t-12 29q0 8 4 18q26 65 40 126.5t14 121.5q0 58 -13 113t-38 107q-7 16 -7 33zM438 237q0 35 24.5 59t58.5 24q51 0 76 -49q62 -109 62 -226 q0 -85 -40.5 -177t-111.5 -180q-11 -11 -28 -11t-29 12t-12 29q0 8 4 18q26 65 40 126.5t14 121.5q0 58 -13 113t-38 107q-7 16 -7 33z" />
<glyph unicode="&#x2026;" horiz-adv-x="1440" d="M79 104q0 44 30 73q30 30 74 30t73 -30q31 -29 31 -73q0 -43 -31 -74q-29 -30 -73 -30t-74 30t-30 74zM557 104q0 44 30 73q30 30 74 30t73 -30q30 -29 30 -73t-30 -74q-29 -30 -73 -30t-74 30t-30 74zM1035 104q0 44 30 73q28 30 73 30q44 0 74 -30q30 -29 30 -73 t-30 -74t-74 -30q-45 0 -73 30q-30 30 -30 74z" />
<glyph unicode="&#x202f;" horiz-adv-x="415" />
<glyph unicode="&#x2039;" horiz-adv-x="560" d="M83 559q0 16 8 31l245 490q7 14 14 21q18 18 44 18t44 -18t18 -44q0 -15 -5 -26l-236 -471l236 -472q5 -11 5 -26q0 -26 -18 -44t-44 -18q-25 0 -40 14q-9 9 -18 24l-243 486q-10 19 -10 35z" />
<glyph unicode="&#x203a;" horiz-adv-x="560" d="M83 62q0 15 5 26l236 472l-236 471q-5 11 -5 26q0 26 18 44t44 18t44 -18q7 -7 14 -21l245 -490q8 -15 8 -31t-10 -35l-243 -486q-9 -15 -18 -24q-15 -14 -40 -14q-26 0 -44 18t-18 44z" />
<glyph unicode="&#x205f;" horiz-adv-x="519" />
<glyph unicode="&#x20ac;" horiz-adv-x="1480" d="M78 809q0 335 236 571q238 238 573 238q290 0 512 -184q19 -18 19 -44t-18 -44.5t-44 -18.5t-51 25q-174 141 -418 141q-284 0 -483 -200q-54 -53 -94.5 -116.5t-70.5 -139.5h980q26 0 44 -18t18 -44t-18 -44t-44 -18h-1010q-7 -55 -7 -104q0 -54 7 -104h1010 q26 0 44 -18t18 -44t-18 -44t-44 -18h-980q60 -152 165 -255q200 -202 483 -202q244 0 428 151q13 9 34 9q26 0 44.5 -18t18.5 -44t-16 -42q-113 -88 -241 -134t-268 -46q-165 0 -310 62t-263 174q-112 118 -174 263t-62 310z" />
<glyph unicode="&#x2122;" horiz-adv-x="1500" d="M59 999q0 11 8.5 18t19.5 7h480q12 0 20 -7t8 -18q0 -10 -8 -17t-20 -7h-212v-566q0 -11 -8 -18t-20 -7q-11 0 -19.5 7t-8.5 18v566h-212q-11 0 -19.5 7t-8.5 17zM329 409v590q0 11 8 18t20 7q17 0 24 -13l308 -547l308 547q8 13 25 13q11 0 19 -7t8 -18v-590 q0 -11 -8 -18t-19 -7q-12 0 -20 7t-8 18v486l-281 -499q-8 -12 -24 -12q-18 0 -26 16l-279 495v-486q0 -11 -7.5 -18t-19.5 -7t-20 7t-8 18z" />
<glyph unicode="&#x25fc;" horiz-adv-x="1120" d="M0 0v1120h1120v-1120h-1120z" />
</font>
</defs>
</svg>
